<svg width="93" height="45" fill="none" xmlns="http://www.w3.org/2000/svg"><g clip-path="url(#clip0_2164_2791)" fill="#fff"><path d="M46.448 6.399v9.397c0 2.07-.536 3.609-1.609 4.616-1.072 1.006-2.638 1.51-4.7 1.51-1.085 0-2.116-.133-3.09-.399-.975-.265-1.783-.65-2.423-1.154l1.295-2.349c.473.392 1.072.7 1.796.923a6.928 6.928 0 002.172.357c1.128 0 1.957-.259 2.486-.777.543-.503.814-1.272.814-2.307v-.483c-.85.938-2.033 1.406-3.55 1.406a6.087 6.087 0 01-2.841-.671 5.28 5.28 0 01-2.026-1.93c-.501-.825-.752-1.776-.752-2.853 0-1.077.25-2.028.752-2.853a5.126 5.126 0 012.026-1.909 5.93 5.93 0 012.84-.692c1.63 0 2.87.538 3.718 1.615V6.399h3.092zm-6.162 8.055c.863 0 1.566-.252 2.11-.755.557-.518.835-1.19.835-2.014 0-.825-.278-1.49-.835-1.993-.544-.517-1.247-.776-2.11-.776-.863 0-1.573.259-2.13.776-.557.503-.836 1.168-.836 1.993 0 .825.279 1.496.836 2.014.557.503 1.267.755 2.13.755zm11.68-6.566c.39-.546.912-.958 1.566-1.238.669-.28 1.434-.42 2.298-.42v3.021a11.712 11.712 0 00-.731-.041c-.933 0-1.664.265-2.193.797-.53.517-.794 1.3-.794 2.35v5.327h-3.259V6.4h3.113v1.489zm16.08 4.195c0 .042-.02.336-.063.881h-8.5a2.66 2.66 0 001.086 1.658c.57.405 1.28.608 2.13.608.585 0 1.1-.084 1.546-.252a3.88 3.88 0 001.274-.839l1.733 1.888c-1.058 1.217-2.604 1.825-4.637 1.825-1.267 0-2.388-.244-3.362-.734-.975-.503-1.727-1.196-2.256-2.077-.53-.88-.794-1.88-.794-3 0-1.104.258-2.097.773-2.978a5.494 5.494 0 012.151-2.077c.92-.504 1.943-.755 3.07-.755 1.1 0 2.096.237 2.987.713A5.108 5.108 0 0167.275 9c.514.88.772 1.909.772 3.083zm-5.827-3.377c-.738 0-1.358.21-1.86.63-.5.419-.807.992-.918 1.72h5.535c-.112-.714-.418-1.28-.92-1.7-.5-.433-1.113-.65-1.837-.65zm18.377 3.377c0 .042-.02.336-.063.881h-8.5a2.66 2.66 0 001.086 1.658c.57.405 1.281.608 2.13.608.585 0 1.1-.084 1.546-.252.46-.181.884-.461 1.274-.839l1.733 1.888c-1.058 1.217-2.604 1.825-4.637 1.825-1.266 0-2.387-.244-3.362-.734-.975-.503-1.727-1.196-2.256-2.077-.53-.88-.794-1.88-.794-3 0-1.104.258-2.097.773-2.978a5.493 5.493 0 012.152-2.077c.919-.504 1.942-.755 3.07-.755 1.1 0 2.096.237 2.987.713A5.112 5.112 0 0179.824 9c.514.88.772 1.909.772 3.083zm-5.827-3.377c-.738 0-1.358.21-1.859.63-.501.419-.808.992-.919 1.72h5.535c-.111-.714-.418-1.28-.92-1.7-.5-.433-1.113-.65-1.837-.65zM88.343 6.23c1.392 0 2.513.42 3.362 1.26.863.838 1.295 2.083 1.295 3.733v6.461h-3.258v-5.957c0-.895-.195-1.56-.585-1.993-.39-.448-.954-.671-1.692-.671-.821 0-1.476.258-1.963.776-.487.503-.731 1.258-.731 2.265v5.58h-3.259V6.4h3.113v1.32c.43-.475.968-.839 1.608-1.09a5.455 5.455 0 012.11-.4zM40.286 38.491c-1.197 0-2.277-.244-3.237-.734a5.728 5.728 0 01-2.235-2.077c-.53-.88-.794-1.88-.794-3 0-1.118.265-2.118.794-3a5.578 5.578 0 012.235-2.055c.96-.503 2.04-.755 3.237-.755 1.184 0 2.214.252 3.091.755a4.345 4.345 0 011.943 2.119l-2.528 1.363c-.584-1.035-1.427-1.552-2.527-1.552-.85 0-1.552.28-2.11.84-.556.558-.835 1.32-.835 2.286 0 .965.279 1.727.836 2.286.557.56 1.26.84 2.11.84 1.113 0 1.956-.518 2.526-1.553l2.528 1.384c-.404.895-1.051 1.595-1.943 2.098-.877.504-1.907.755-3.09.755zm6.202-15.733h3.258v15.566h-3.258V22.758zm5.656 4.28h3.258v11.286h-3.258V27.038zm1.629-1.574c-.6 0-1.087-.174-1.463-.524a1.705 1.705 0 01-.563-1.3c0-.518.188-.952.563-1.301.377-.35.864-.525 1.463-.525.598 0 1.086.168 1.462.504.376.335.564.755.564 1.258 0 .546-.188 1-.564 1.364-.376.35-.864.524-1.462.524zm10.438 1.406c1.393 0 2.514.42 3.363 1.259.863.839 1.295 2.083 1.295 3.733v6.462h-3.258v-5.958c0-.895-.195-1.56-.585-1.993-.39-.447-.954-.671-1.692-.671-.822 0-1.476.258-1.963.776-.488.503-.731 1.259-.731 2.266v5.58h-3.26V27.038h3.112v1.321a4.215 4.215 0 011.609-1.09 5.454 5.454 0 012.11-.4zm6.568.168h3.258v11.286H70.78V27.038zm1.629-1.574c-.599 0-1.087-.174-1.463-.524a1.706 1.706 0 01-.563-1.3c0-.518.188-.952.563-1.301.377-.35.864-.525 1.463-.525.599 0 1.086.168 1.462.504.376.335.564.755.564 1.258 0 .546-.188 1-.564 1.364-.376.35-.864.524-1.462.524zm9.457 13.027c-1.197 0-2.277-.244-3.238-.734a5.73 5.73 0 01-2.235-2.077c-.529-.88-.793-1.88-.793-3 0-1.118.264-2.118.793-3a5.58 5.58 0 012.235-2.055c.961-.503 2.04-.755 3.238-.755 1.183 0 2.214.252 3.09.755a4.344 4.344 0 011.944 2.119l-2.528 1.363c-.585-1.035-1.427-1.552-2.527-1.552-.85 0-1.553.28-2.11.84-.557.558-.836 1.32-.836 2.286 0 .965.28 1.727.836 2.286.557.56 1.26.84 2.11.84 1.114 0 1.956-.518 2.527-1.553l2.528 1.384c-.404.895-1.052 1.595-1.943 2.098-.877.504-1.908.755-3.091.755z"/><path fill-rule="evenodd" clip-rule="evenodd" d="M23.919 1.692H1.684v41.616H23.92V1.692zM0 0v45h25.603V0H0z"/><path fill-rule="evenodd" clip-rule="evenodd" d="M12.633 20.639a6.99 6.99 0 001.165-.098 5.076 5.076 0 01-.976 10.078l-.04 1.691.164.002a6.764 6.764 0 006.762-6.767 6.765 6.765 0 00-3.48-5.918 6.938 6.938 0 003.311-5.924c0-3.83-3.092-6.936-6.906-6.936-3.814 0-6.906 3.105-6.906 6.936 0 3.83 3.092 6.936 6.906 6.936zm0-1.692c2.884 0 5.222-2.348 5.222-5.244s-2.338-5.244-5.222-5.244c-2.884 0-5.222 2.348-5.222 5.244s2.338 5.244 5.222 5.244z"/><path d="M12.781 36.37a5.076 5.076 0 110-10.147l.04-1.691a6.764 6.764 0 00-6.926 6.765 6.764 6.764 0 006.927 6.765l-.04-1.691z"/></g><defs><clipPath id="clip0_2164_2791"><path fill="#fff" d="M0 0h93v45H0z"/></clipPath></defs></svg>