<svg width="211" height="63" viewBox="0 0 211 63" fill="none" xmlns="http://www.w3.org/2000/svg">
<path fill-rule="evenodd" clip-rule="evenodd" d="M21.6727 0H48.4024V18.1034H68L67.9059 20.3663C67.7706 23.6233 66.6364 27.7507 64.2353 31.0297C61.774 34.3909 57.9056 36.9234 52.5599 36.4843C42.3297 35.644 37.0171 31.7005 32.6164 28.4339C31.4354 27.5573 30.3202 26.7295 29.1931 26.0234C27.0805 24.6999 23.7773 22.9995 20.0834 22.5206C16.4805 22.0534 12.4836 22.7352 8.68871 26.2221C7.80638 27.0328 6.43543 26.9731 5.62662 26.0886C4.81781 25.2042 4.87742 23.83 5.75976 23.0193C10.634 18.5406 15.9659 17.6057 20.6395 18.2116C25.2222 18.8058 29.1432 20.8685 31.4904 22.339C32.9376 23.2456 34.2431 24.2092 35.5398 25.1662C39.827 28.3303 44.0177 31.4232 52.9139 32.154C56.4742 32.4464 58.9873 30.8538 60.7411 28.4588C62.0481 26.6738 62.8883 24.4824 63.2952 22.4483H44.0678V4.34483H26.0072V12.3103C26.0072 13.5101 25.0369 14.4828 23.84 14.4828C22.643 14.4828 21.6727 13.5101 21.6727 12.3103V0ZM29.2133 31.2961C29.9376 31.6736 30.6386 32.0391 31.311 32.3761C32.9244 33.1847 34.4778 34.0002 36.0069 34.8029C41.5188 37.6964 46.7145 40.424 53.2626 42.0649C56.0384 42.7605 58.3893 42.0547 60.2424 40.8981C62.151 39.7069 63.4155 38.101 63.846 37.3243C64.4273 36.2755 65.7467 35.8976 66.7931 36.4803C67.8394 37.0629 68.2164 38.3855 67.6351 39.4343C66.8615 40.83 65.0918 42.9897 62.5335 44.5864C59.9196 46.2178 56.3707 47.3223 52.2113 46.28C45.1126 44.5011 39.3455 41.4692 33.7706 38.5384C32.2982 37.7643 30.8392 36.9972 29.3726 36.2622C28.5575 35.8537 27.7594 35.4389 26.9733 35.0304C24.076 33.5247 21.3422 32.1039 18.5266 31.396C15.2208 30.5648 12.0308 30.7941 8.73608 33.4305C7.96275 34.3329 6.84713 35.788 5.91922 37.3293C5.55304 37.9376 5.22957 38.5371 4.97064 39.1034H26.0072V58.6552H44.0678V50.6897C44.0678 49.4899 45.0382 48.5172 46.2351 48.5172C47.4321 48.5172 48.4024 49.4899 48.4024 50.6897V63H21.6727V43.4483H0V41.2759C0 40.1658 0.313929 39.0463 0.705109 38.0553C1.10533 37.0413 1.64183 36.025 2.20804 35.0845C3.33836 33.2069 4.68209 31.4753 5.5932 30.4315L5.7121 30.2953L5.85184 30.1807C10.4543 26.4062 15.1676 26.072 19.5812 27.1817C22.9411 28.0265 26.2697 29.7616 29.2133 31.2961Z" fill="url(#paint0_linear)"/>
<path d="M86.1819 15.254L91.5368 29.4278L96.8789 15.254H101.048V33.746H97.8352V27.6497L98.1539 19.496L92.6715 33.746H90.3638L84.8942 19.5087L85.2129 27.6497V33.746H82V15.254H86.1819Z" fill="#2B2A29"/>
<path d="M115.723 25.4906H108.099V31.1805H117.011V33.746H104.873V15.254H116.921V17.8449H108.099V22.9505H115.723V25.4906Z" fill="#2B2A29"/>
<path d="M119.637 33.746V15.254H125.12C126.76 15.254 128.214 15.6181 129.48 16.3463C130.755 17.0744 131.741 18.1074 132.438 19.4452C133.135 20.783 133.483 22.3155 133.483 24.0428V24.9699C133.483 26.7226 133.131 28.2636 132.425 29.5929C131.728 30.9222 130.729 31.9467 129.429 32.6664C128.137 33.3861 126.654 33.746 124.979 33.746H119.637ZM122.863 17.8449V31.1805H124.967C126.658 31.1805 127.954 30.6555 128.855 29.6056C129.765 28.5472 130.228 27.0316 130.245 25.0588V24.0301C130.245 22.0234 129.807 20.4909 128.932 19.4325C128.056 18.3741 126.786 17.8449 125.12 17.8449H122.863Z" fill="#2B2A29"/>
<path d="M140.1 33.746H136.888V15.254H140.1V33.746Z" fill="#2B2A29"/>
<path d="M153.768 28.9833C153.768 28.1705 153.479 27.5439 152.901 27.1036C152.332 26.6633 151.299 26.2188 149.803 25.7701C148.307 25.3213 147.117 24.8217 146.233 24.2714C144.542 23.213 143.696 21.8329 143.696 20.131C143.696 18.6408 144.304 17.4131 145.519 16.4479C146.743 15.4826 148.328 15 150.275 15C151.567 15 152.718 15.2371 153.73 15.7112C154.741 16.1854 155.536 16.8627 156.114 17.7433C156.692 18.6154 156.981 19.5849 156.981 20.6517H153.768C153.768 19.6865 153.462 18.9329 152.85 18.391C152.247 17.8407 151.38 17.5655 150.249 17.5655C149.195 17.5655 148.375 17.7899 147.789 18.2386C147.211 18.6874 146.922 19.3139 146.922 20.1183C146.922 20.7957 147.236 21.363 147.865 21.8202C148.494 22.2689 149.531 22.7092 150.976 23.141C152.421 23.5644 153.581 24.0512 154.457 24.6016C155.332 25.1435 155.974 25.7701 156.382 26.4813C156.79 27.184 156.994 28.0096 156.994 28.9579C156.994 30.4989 156.399 31.7266 155.209 32.641C154.027 33.547 152.421 34 150.39 34C149.047 34 147.81 33.7545 146.679 33.2634C145.557 32.7638 144.682 32.078 144.053 31.2059C143.432 30.3338 143.122 29.3177 143.122 28.1578H146.348C146.348 29.2077 146.696 30.0205 147.393 30.5963C148.09 31.172 149.089 31.4599 150.39 31.4599C151.511 31.4599 152.353 31.2355 152.914 30.7868C153.483 30.3295 153.768 29.7284 153.768 28.9833Z" fill="#2B2A29"/>
<path d="M173.989 27.7259C173.802 29.6988 173.071 31.2398 171.796 32.3489C170.521 33.4496 168.826 34 166.709 34C165.23 34 163.925 33.6529 162.795 32.9586C161.673 32.2558 160.806 31.2609 160.194 29.9739C159.582 28.6869 159.263 27.1925 159.238 25.4906V23.7634C159.238 22.0192 159.548 20.4824 160.169 19.1531C160.789 17.8238 161.677 16.7992 162.833 16.0795C163.998 15.3598 165.341 15 166.862 15C168.911 15 170.56 15.5546 171.809 16.6638C173.059 17.773 173.785 19.3393 173.989 21.363H170.776C170.623 20.0336 170.232 19.0769 169.603 18.4926C168.983 17.9 168.069 17.6036 166.862 17.6036C165.46 17.6036 164.38 18.1159 163.624 19.1404C162.876 20.1564 162.493 21.6508 162.476 23.6237V25.262C162.476 27.2603 162.833 28.7843 163.547 29.8342C164.27 30.8841 165.324 31.4091 166.709 31.4091C167.976 31.4091 168.928 31.1254 169.565 30.5582C170.203 29.9909 170.606 29.0468 170.776 27.7259H173.989Z" fill="#2B2A29"/>
<path d="M187.274 29.4405H180.084L178.579 33.746H175.226L182.238 15.254H185.133L192.158 33.746H188.792L187.274 29.4405ZM180.989 26.8496H186.369L183.679 19.1785L180.989 26.8496Z" fill="#2B2A29"/>
<path d="M209 33.746H205.774L197.5 20.6263V33.746H194.274V15.254H197.5L205.8 28.4245V15.254H209V33.746Z" fill="#2B2A29"/>
<path d="M82.8865 42.6167H81.9816V45.566H81V39H81.9816V41.8952H82.7485L85.3507 39H86.5726L83.7301 42.1838L86.7822 45.566H85.5808L82.8865 42.6167Z" fill="#2B2A29"/>
<path d="M87.1401 43.0812C87.1401 42.6032 87.2457 42.1732 87.4571 41.7914C87.6718 41.4096 87.9683 41.115 88.3466 40.9076C88.7284 40.7001 89.1629 40.5964 89.6503 40.5964C90.4035 40.5964 91.0119 40.8264 91.4755 41.2864C91.9424 41.7463 92.1759 42.3581 92.1759 43.1218V43.1804C92.1759 43.6554 92.0719 44.0823 91.864 44.4611C91.6595 44.8369 91.3647 45.13 90.9795 45.3405C90.5978 45.5509 90.1581 45.6561 89.6605 45.6561C88.9107 45.6561 88.3023 45.4262 87.8354 44.9662C87.3718 44.5062 87.1401 43.8974 87.1401 43.1398V43.0812ZM88.091 43.1804C88.091 43.7215 88.2324 44.156 88.5153 44.4837C88.8016 44.8113 89.1834 44.9752 89.6605 44.9752C90.1411 44.9752 90.5228 44.8098 90.8057 44.4791C91.0886 44.1454 91.2301 43.6794 91.2301 43.0812C91.2301 42.546 91.0852 42.1131 90.7955 41.7824C90.5092 41.4487 90.1275 41.2818 89.6503 41.2818C89.1834 41.2818 88.8067 41.4457 88.5204 41.7734C88.2342 42.1011 88.091 42.5701 88.091 43.1804Z" fill="#2B2A29"/>
<path d="M96.547 44.4611L98.4284 40.6866H99.6094V45.566H98.6636V42.0169L96.8742 45.566H96.2198L94.3947 41.9402V45.566H93.4489V40.6866H94.6759L96.547 44.4611Z" fill="#2B2A29"/>
<path d="M105.657 45.566H104.712V41.3766H102.166V45.566H101.215V40.6866H105.657V45.566Z" fill="#2B2A29"/>
<path d="M111.711 40.6866V45.566H110.76V41.3766H108.878L108.766 43.2029C108.704 44.0417 108.544 44.6415 108.285 45.0023C108.03 45.363 107.622 45.5509 107.063 45.566H106.685V44.8309L106.956 44.8129C107.263 44.7828 107.483 44.6265 107.616 44.3439C107.748 44.0613 107.834 43.5381 107.871 42.7745L107.973 40.6866H111.711Z" fill="#2B2A29"/>
<path d="M115.525 45.6561C114.775 45.6561 114.165 45.4397 113.694 45.0068C113.224 44.5708 112.989 43.9891 112.989 43.2616V43.1082C112.989 42.6242 113.093 42.1928 113.301 41.814C113.512 41.4322 113.805 41.1345 114.18 40.9211C114.558 40.7046 114.967 40.5964 115.407 40.5964C116.126 40.5964 116.685 40.8053 117.084 41.2232C117.483 41.6411 117.682 42.2394 117.682 43.018V43.3653H113.935C113.948 43.8463 114.107 44.2356 114.41 44.5333C114.717 44.8279 115.105 44.9752 115.576 44.9752C115.91 44.9752 116.193 44.9151 116.424 44.7948C116.656 44.6746 116.859 44.5152 117.033 44.3168L117.61 44.7136C117.147 45.342 116.452 45.6561 115.525 45.6561ZM115.407 41.2818C115.025 41.2818 114.705 41.4051 114.446 41.6516C114.187 41.8952 114.027 42.2379 113.965 42.6798H116.736V42.6167C116.709 42.1928 116.579 41.8651 116.348 41.6336C116.116 41.3991 115.802 41.2818 115.407 41.2818Z" fill="#2B2A29"/>
<path d="M120.504 43.487H119.814V45.566H118.863V40.6866H119.814V42.752H120.433L122.293 40.6866H123.439L121.251 43.0316L123.623 45.566H122.421L120.504 43.487Z" fill="#2B2A29"/>
<path d="M126.573 44.9752C126.91 44.9752 127.205 44.885 127.457 44.7046C127.709 44.5242 127.849 44.2988 127.876 44.0282H128.771C128.754 44.3078 128.645 44.5738 128.444 44.8264C128.243 45.0789 127.973 45.2803 127.636 45.4307C127.302 45.581 126.948 45.6561 126.573 45.6561C125.819 45.6561 125.219 45.4352 124.773 44.9932C124.33 44.5483 124.108 43.941 124.108 43.1714V43.0316C124.108 42.5566 124.207 42.1342 124.405 41.7644C124.603 41.3946 124.885 41.1075 125.254 40.903C125.625 40.6986 126.063 40.5964 126.567 40.5964C127.188 40.5964 127.702 40.7602 128.111 41.0879C128.524 41.4156 128.744 41.841 128.771 42.3641H127.876C127.849 42.0485 127.713 41.7899 127.467 41.5885C127.225 41.3841 126.925 41.2818 126.567 41.2818C126.087 41.2818 125.714 41.4352 125.448 41.7418C125.185 42.0455 125.054 42.4859 125.054 43.0631V43.221C125.054 43.7832 125.185 44.2161 125.448 44.5197C125.71 44.8234 126.085 44.9752 126.573 44.9752Z" fill="#2B2A29"/>
<path d="M134.354 45.566H133.408V43.4825H130.867V45.566H129.916V40.6866H130.867V42.8016H133.408V40.6866H134.354V45.566Z" fill="#2B2A29"/>
<path d="M139.292 45.566C139.238 45.4697 139.194 45.2984 139.16 45.0519C138.72 45.4547 138.195 45.6561 137.585 45.6561C137.04 45.6561 136.591 45.5209 136.24 45.2503C135.893 44.9767 135.719 44.631 135.719 44.2131C135.719 43.705 135.937 43.3112 136.373 43.0316C136.813 42.749 137.43 42.6077 138.224 42.6077H139.144V42.2244C139.144 41.9327 139.045 41.7012 138.848 41.5299C138.65 41.3555 138.359 41.2683 137.973 41.2683C137.636 41.2683 137.353 41.3435 137.125 41.4938C136.896 41.6441 136.782 41.826 136.782 42.0395H135.831C135.831 41.7959 135.928 41.5614 136.123 41.336C136.32 41.1075 136.586 40.9271 136.92 40.7948C137.258 40.6625 137.627 40.5964 138.03 40.5964C138.667 40.5964 139.166 40.7377 139.528 41.0203C139.889 41.2999 140.076 41.6862 140.09 42.1793V44.425C140.09 44.873 140.155 45.2292 140.284 45.4938V45.566H139.292ZM137.723 44.9301C138.019 44.9301 138.301 44.8625 138.566 44.7272C138.832 44.5919 139.025 44.416 139.144 44.1995V43.1984H138.403C137.244 43.1984 136.665 43.4976 136.665 44.0958C136.665 44.3574 136.763 44.5618 136.961 44.7091C137.159 44.8564 137.413 44.9301 137.723 44.9301Z" fill="#2B2A29"/>
<path d="M145.801 40.6866V45.566H144.85V43.6674H143.423L142.12 45.566H141.097L142.488 43.5412C142.133 43.4269 141.861 43.251 141.67 43.0135C141.482 42.773 141.389 42.4934 141.389 42.1747C141.389 41.7298 141.578 41.372 141.956 41.1015C142.334 40.8279 142.84 40.6896 143.474 40.6866H145.801ZM142.339 42.1838C142.339 42.4213 142.431 42.6137 142.616 42.761C142.8 42.9053 143.043 42.979 143.347 42.982H144.85V41.363H143.49C143.139 41.363 142.859 41.4397 142.651 41.593C142.443 41.7433 142.339 41.9402 142.339 42.1838Z" fill="#2B2A29"/>
<path d="M149.87 44.885L150.197 44.5287C150.565 44.1079 150.775 43.4765 150.826 42.6347L150.913 40.6866H154.476V44.885H155.187V47H154.241V45.566H150.381V47H149.436L149.441 44.885H149.87ZM150.99 44.885H153.531V41.4577H151.828L151.772 42.6212C151.714 43.5923 151.453 44.3469 150.99 44.885Z" fill="#2B2A29"/>
<path d="M159.814 40.6866H160.76V45.566H159.814V42.0079L157.263 45.566H156.317V40.6866H157.263V44.2492L159.814 40.6866Z" fill="#2B2A29"/>
<path d="M165.693 45.566C165.639 45.4697 165.594 45.2984 165.56 45.0519C165.121 45.4547 164.596 45.6561 163.986 45.6561C163.44 45.6561 162.992 45.5209 162.641 45.2503C162.293 44.9767 162.12 44.631 162.12 44.2131C162.12 43.705 162.338 43.3112 162.774 43.0316C163.214 42.749 163.831 42.6077 164.625 42.6077H165.545V42.2244C165.545 41.9327 165.446 41.7012 165.248 41.5299C165.051 41.3555 164.759 41.2683 164.374 41.2683C164.037 41.2683 163.754 41.3435 163.526 41.4938C163.297 41.6441 163.183 41.826 163.183 42.0395H162.232C162.232 41.7959 162.329 41.5614 162.524 41.336C162.721 41.1075 162.987 40.9271 163.321 40.7948C163.658 40.6625 164.028 40.5964 164.43 40.5964C165.068 40.5964 165.567 40.7377 165.928 41.0203C166.29 41.2999 166.477 41.6862 166.491 42.1793V44.425C166.491 44.873 166.556 45.2292 166.685 45.4938V45.566H165.693ZM164.124 44.9301C164.42 44.9301 164.701 44.8625 164.967 44.7272C165.233 44.5919 165.426 44.416 165.545 44.1995V43.1984H164.804C163.645 43.1984 163.065 43.4976 163.065 44.0958C163.065 44.3574 163.164 44.5618 163.362 44.7091C163.56 44.8564 163.814 44.9301 164.124 44.9301Z" fill="#2B2A29"/>
<path d="M171.547 41.3766H168.996V45.566H168.045V40.6866H171.547V41.3766Z" fill="#2B2A29"/>
<path d="M176.89 45.566H175.944V43.4825H173.403V45.566H172.452V40.6866H173.403V42.8016H175.944V40.6866H176.89V45.566Z" fill="#2B2A29"/>
<path d="M178.163 43.0812C178.163 42.6032 178.268 42.1732 178.48 41.7914C178.694 41.4096 178.991 41.115 179.369 40.9076C179.751 40.7001 180.185 40.5964 180.673 40.5964C181.426 40.5964 182.034 40.8264 182.498 41.2864C182.965 41.7463 183.198 42.3581 183.198 43.1218V43.1804C183.198 43.6554 183.094 44.0823 182.887 44.4611C182.682 44.8369 182.387 45.13 182.002 45.3405C181.62 45.5509 181.181 45.6561 180.683 45.6561C179.933 45.6561 179.325 45.4262 178.858 44.9662C178.394 44.5062 178.163 43.8974 178.163 43.1398V43.0812ZM179.113 43.1804C179.113 43.7215 179.255 44.156 179.538 44.4837C179.824 44.8113 180.206 44.9752 180.683 44.9752C181.164 44.9752 181.545 44.8098 181.828 44.4791C182.111 44.1454 182.253 43.6794 182.253 43.0812C182.253 42.546 182.108 42.1131 181.818 41.7824C181.532 41.4487 181.15 41.2818 180.673 41.2818C180.206 41.2818 179.829 41.4457 179.543 41.7734C179.257 42.1011 179.113 42.5701 179.113 43.1804Z" fill="#2B2A29"/>
<path d="M186.603 44.9752C186.941 44.9752 187.236 44.885 187.488 44.7046C187.74 44.5242 187.88 44.2988 187.907 44.0282H188.802C188.785 44.3078 188.676 44.5738 188.474 44.8264C188.273 45.0789 188.004 45.2803 187.667 45.4307C187.333 45.581 186.978 45.6561 186.603 45.6561C185.85 45.6561 185.25 45.4352 184.804 44.9932C184.361 44.5483 184.139 43.941 184.139 43.1714V43.0316C184.139 42.5566 184.238 42.1342 184.436 41.7644C184.633 41.3946 184.916 41.1075 185.284 40.903C185.656 40.6986 186.094 40.5964 186.598 40.5964C187.218 40.5964 187.733 40.7602 188.142 41.0879C188.555 41.4156 188.774 41.841 188.802 42.3641H187.907C187.88 42.0485 187.743 41.7899 187.498 41.5885C187.256 41.3841 186.956 41.2818 186.598 41.2818C186.118 41.2818 185.744 41.4352 185.479 41.7418C185.216 42.0455 185.085 42.4859 185.085 43.0631V43.221C185.085 43.7832 185.216 44.2161 185.479 44.5197C185.741 44.8234 186.116 44.9752 186.603 44.9752Z" fill="#2B2A29"/>
<path d="M193.975 41.363H192.12V45.566H191.174V41.363H189.354V40.6866H193.975V41.363Z" fill="#2B2A29"/>
<path d="M198.474 40.6866H199.42V45.566H198.474V42.0079L195.923 45.566H194.978V40.6866H195.923V44.2492L198.474 40.6866Z" fill="#2B2A29"/>
<path d="M202.662 43.487H201.971V45.566H201.02V40.6866H201.971V42.752H202.59L204.451 40.6866H205.596L203.408 43.0316L205.78 45.566H204.579L202.662 43.487Z" fill="#2B2A29"/>
<path d="M210.008 45.566C209.954 45.4697 209.909 45.2984 209.875 45.0519C209.436 45.4547 208.911 45.6561 208.301 45.6561C207.755 45.6561 207.307 45.5209 206.956 45.2503C206.608 44.9767 206.435 44.631 206.435 44.2131C206.435 43.705 206.653 43.3112 207.089 43.0316C207.529 42.749 208.146 42.6077 208.94 42.6077H209.86V42.2244C209.86 41.9327 209.761 41.7012 209.563 41.5299C209.366 41.3555 209.074 41.2683 208.689 41.2683C208.352 41.2683 208.069 41.3435 207.84 41.4938C207.612 41.6441 207.498 41.826 207.498 42.0395H206.547C206.547 41.7959 206.644 41.5614 206.838 41.336C207.036 41.1075 207.302 40.9271 207.636 40.7948C207.973 40.6625 208.343 40.5964 208.745 40.5964C209.383 40.5964 209.882 40.7377 210.243 41.0203C210.605 41.2999 210.792 41.6862 210.806 42.1793V44.425C210.806 44.873 210.87 45.2292 211 45.4938V45.566H210.008ZM208.439 44.9301C208.735 44.9301 209.016 44.8625 209.282 44.7272C209.548 44.5919 209.741 44.416 209.86 44.1995V43.1984H209.119C207.96 43.1984 207.38 43.4976 207.38 44.0958C207.38 44.3574 207.479 44.5618 207.677 44.7091C207.875 44.8564 208.128 44.9301 208.439 44.9301Z" fill="#2B2A29"/>
<defs>
<linearGradient id="paint0_linear" x1="59.9612" y1="8.68966" x2="17.9456" y2="57.8327" gradientUnits="userSpaceOnUse">
<stop stop-color="#4C89C8"/>
<stop offset="1" stop-color="#6CC2C8"/>
</linearGradient>
</defs>
</svg>
