<svg width="73" height="96" viewBox="0 0 73 96" fill="none" xmlns="http://www.w3.org/2000/svg">
<path fill-rule="evenodd" clip-rule="evenodd" d="M5.87671 48.7946C5.39917 47.9673 5.39301 46.6726 4.44464 45.7988C1.26639 49.215 6.89317 49.7457 7.56048 53.6953C5.3631 53.6365 5.70703 53.4023 4.06814 51.6898C3.08367 50.6618 2.91764 50.474 1.99815 49.2753L1.98682 51.1513C2.05592 54.3194 3.76701 53.1047 3.56795 57.6159C3.22759 65.323 6.34752 71.6257 11.7242 76.318C24.2758 87.2731 36.077 108.849 52.8233 85.7056C63.5843 70.8344 57.6141 59.1479 57.8142 58.1132C58.3877 55.155 64.6684 52.5667 60.1838 40.501L55.4714 40.5845C55.2182 42.7483 60.4396 47.8997 54.2791 54.8991C51.7068 57.8217 52.8831 58.2601 53.995 61.6046C58.3686 74.7582 44.5118 92.3337 37.0053 91.69C32.15 91.2738 19.2828 77.3681 16.1442 74.249C13.0949 71.2171 9.79704 68.3245 8.40157 62.8844C7.66206 60.0025 7.77139 56.8891 8.76668 54.3152C10.0415 51.0182 11.9862 50.979 9.35097 48.0131C6.29185 47.8496 7.94002 48.5089 5.87671 48.7946Z" fill="#96989A"/>
<path fill-rule="evenodd" clip-rule="evenodd" d="M28.9878 12.814L28.7795 14.5244C26.2443 15.3703 27.4773 14.4218 26.3036 16.793C25.1758 19.0708 25.3676 20.8038 23.378 21.7013C19.5949 22.6184 20.8774 20.9668 18.1453 21.6271L17.0891 22.8191C16.002 24.5424 14.5756 27.9158 14.5761 29.9516L14.2352 32.526C15.2548 32.214 15.0768 31.5264 17.1128 31.6595C17.1654 33.8924 16.3738 33.2399 16.5837 35.184C16.7761 36.9635 17.2758 36.5261 18.3634 37.894C20.0363 39.9985 19.5201 42.4548 16.8313 43.4931C15.1893 41.5439 16.9138 42.7353 17.019 39.1397C15.5157 37.9657 15.3832 37.4649 14.0037 35.9278C13.5705 38.938 14.5637 39.1268 14.1986 41.8621C13.6876 47.9543 22.1223 48.5062 23.8479 45.9839C24.7586 44.0089 24.5595 42.5863 24.2717 40.7897C23.8236 37.9894 24.1067 37.2167 23.9396 34.7254C22.1372 33.8862 23.3414 34.9369 21.75 33.5901C19.1746 31.4108 16.8168 29.3853 16.6601 27.0714C18.9023 27.4505 17.8812 27.7275 19.6372 27.8771C21.7654 24.5089 22.5803 24.7802 23.9814 25.2671C24.1248 27.5614 21.7273 27.973 20.8614 29.5808L23.276 32.3971L25.267 31.922C26.3314 29.442 26.2664 28.6709 28.222 26.6438C28.2864 23.1234 25.4042 24.5048 25.8694 21.4527C27.6063 21.2877 28.419 22.4848 29.3359 24.0581L31.1945 23.6562L32.3888 23.207C32.1114 21.1546 28.0105 18.5193 31.5224 15.7624C32.4837 15.0077 32.5275 15.4616 33.3413 14.7823C34.6636 13.679 33.5476 14.428 34.4449 13.0472C35.2252 11.8453 36.3045 11.6699 37.8774 10.8735C38.6174 7.48573 39.0449 4.21762 37.8774 1.03768L29.9738 1C29.8789 3.31287 30.1022 5.37766 29.9439 7.61213C29.8114 9.49069 29.0332 11.4239 28.9878 12.814Z" fill="#8AC912" stroke="#8AC912" stroke-width="0.0762" stroke-miterlimit="22.9256"/>
<path fill-rule="evenodd" clip-rule="evenodd" d="M41.7013 69.6378C42.6069 71.9048 44.1932 72.7161 44.8873 73.5466L44.9863 67.9336C45.9063 63.2124 46.0692 62.4578 45.7119 57.5359C47.3812 57.635 46.504 58.2524 49.0103 57.6407C49.1062 54.7676 46.1363 53.7561 42.1046 51.6305L42.7105 41.7791C60.0673 31.986 67.2474 39.9754 72.0857 38.1128C72.112 35.4523 71.356 35.2345 65.1186 34.1942C61.845 33.6479 58.2562 33.6593 54.9537 34.0369C51.7832 34.3984 49.4254 35.0515 46.5365 36.3425C43.8677 37.5361 41.5786 39.248 39.4802 40.0253C39.5173 42.461 38.9624 51.6424 39.4018 52.725C40.0495 54.3194 41.2418 54.4272 42.2273 56.5626C45.6645 64.0129 38.3549 68.2936 32.0737 70.9531C30.0414 71.814 28.5536 71.539 29.1075 74.3801C32.8592 76.0142 39.1821 69.2906 41.7013 69.6378Z" fill="#96989A" stroke="#96989A" stroke-width="0.0762" stroke-miterlimit="22.9256"/>
<path fill-rule="evenodd" clip-rule="evenodd" d="M40.4415 10.1394L40.1506 10.7981C40.1475 10.8048 39.5576 11.8034 39.556 11.8065C41.377 14.1947 43.6832 14.6269 44.0581 17.5469C39.4689 16.8939 40.5833 12.6261 36.2127 13.9192C35.5728 17.778 40.3342 17.3421 40.1836 21.0848C36.1679 21.1715 37.9264 16.8877 32.7477 17.3602C31.8757 21.0188 34.6141 21.2627 36.5814 23.2568C39.0939 24.0765 39.3333 25.5955 41.1521 26.8247C43.2098 26.1526 48.5333 24.4711 50.168 23.032C49.4466 20.57 47.8397 19.9573 46.8124 17.8868C47.5896 15.6864 54.0358 9.45544 54.3592 4.19473L49.4136 2.93927L45.4592 2.38785C45.7821 4.4454 47.605 7.1183 46.7639 8.76682C44.2159 8.22006 46.5994 9.51269 44.8213 6.63655C43.7007 4.82349 45.9172 6.85731 44.4253 6.15117C42.8209 8.31962 43.6079 10.307 47.9284 10.5211C48.7674 9.20266 48.8355 8.51411 50.7157 8.77407C51.5522 12.2821 45.6351 14.304 42.4795 10.4484C41.7379 9.54314 42.2547 10.503 41.7416 9.27955C41.4543 9.51734 40.4673 10.1198 40.4415 10.1394Z" fill="#8AC912" stroke="#8AC912" stroke-width="0.0762" stroke-miterlimit="22.9256"/>
<path fill-rule="evenodd" clip-rule="evenodd" d="M39.2785 30.7506C37.4793 28.0973 38.0068 26.2703 33.6538 26.8661C33.6982 28.543 35.5882 30.0636 37.6567 34.4449C41.6141 34.3825 50.0674 26.8187 64.426 29.6902C66.1268 30.0301 71.7185 32.0747 72.6432 30.6191C74.8926 27.0781 57.971 24.4954 46.9186 27.7868C44.3246 28.5595 40.9412 30.4948 39.2785 30.7506Z" fill="#96989A"/>
<path fill-rule="evenodd" clip-rule="evenodd" d="M32.3895 23.2069L36.579 23.2569C34.6116 21.2628 31.8732 21.0189 32.7453 17.3602C37.9239 16.8878 36.1654 21.1715 40.1812 21.0849C40.3318 17.3422 35.5703 17.778 36.2103 13.9193C40.5808 12.6262 39.4664 16.894 44.0556 17.547C43.6807 14.627 41.3745 14.1947 39.5536 11.8066C39.5551 11.8035 40.145 10.8048 40.1481 10.7981L40.439 10.1395C38.3747 10.2772 39.1601 10.9591 39.2952 5.72364C39.4344 0.317483 38.7511 1.31301 37.8781 1.03757C39.0456 4.21751 38.6181 7.48562 37.8781 10.8734C36.3052 11.6698 35.2258 11.8452 34.4456 13.0471C33.5483 14.4279 34.6642 13.6789 33.342 14.7822C32.5282 15.4615 32.4843 15.0076 31.5231 15.7623C28.0111 18.5192 32.112 21.1545 32.3895 23.2069Z" fill="#8AC912" stroke="#8AC912" stroke-width="0.0762" stroke-miterlimit="22.9256"/>
<path fill-rule="evenodd" clip-rule="evenodd" d="M22.7117 51.3193C24.3011 51.9094 28.3447 51.6679 29.9934 51.115C32.3419 50.3284 32.6389 48.3663 32.6214 45.4999C32.5941 40.9624 31.7741 34.5917 29.0115 32.3649C27.5129 37.6628 29.3194 39.1891 29.5793 44.5632C29.7768 48.6371 29.8995 48.2605 26.2355 48.4839C23.8705 48.6278 22.3146 48.6129 22.7117 51.3193Z" fill="#96989A"/>
<path fill-rule="evenodd" clip-rule="evenodd" d="M41.7042 69.6378L35.4369 81.9397C34.6633 84.4955 37.1186 85.5854 38.9916 81.6699C39.4794 80.6507 40.0163 79.6727 40.5495 78.5395C41.6051 76.2968 41.3669 76.2416 42.6958 75.6593C42.8975 78.964 41.6954 82.0367 44.7334 82.2167C48.1948 78.685 43.4978 72.435 44.9892 67.9335L44.8902 73.5465C44.196 72.7161 42.6097 71.9047 41.7042 69.6378Z" fill="#96989A"/>
<path fill-rule="evenodd" clip-rule="evenodd" d="M2.09908 42.7405L1.76025 45.3655C4.17526 44.5376 5.22831 42.0401 6.71919 41.4722C9.57305 38.3799 10.31 37.6145 10.0021 31.7353L7.1049 33.8893C5.06326 36.0454 2.05009 39.8469 2.09908 42.7405Z" fill="#96989A" stroke="#96989A" stroke-width="0.2" stroke-miterlimit="22.9256"/>
<path fill-rule="evenodd" clip-rule="evenodd" d="M40.438 10.1395C40.4638 10.1199 41.4508 9.51744 41.7381 9.27965C42.2512 10.5031 41.7344 9.54324 42.476 10.4485C45.6315 14.3041 51.5486 12.2822 50.7122 8.77418C48.832 8.51421 48.7639 9.20277 47.9249 10.5212C43.6044 10.3071 42.8174 8.31972 44.4217 6.15128C45.9137 6.85742 43.6972 4.82361 44.8178 6.63666C46.5959 9.51279 44.2124 8.22017 46.7604 8.76692C47.6015 7.11841 47.1941 5.26773 46.8713 3.21019L50.3687 3.67028C49.2615 2.63403 46.4556 2.35396 44.8894 2.29877C43.9287 3.87042 43.7044 5.03769 42.79 6.40354C41.7788 7.91382 40.7309 8.26816 40.438 10.1395Z" fill="#8AC912" stroke="#8AC912" stroke-width="0.0762" stroke-miterlimit="22.9256"/>
<path fill-rule="evenodd" clip-rule="evenodd" d="M23.8495 45.9838C26.4672 43.9216 24.3249 36.9159 25.2687 31.9219L23.2776 32.3969L20.863 29.5806C21.7289 27.9729 24.1264 27.5613 23.983 25.267C22.5819 24.78 21.767 24.5087 19.6387 27.8769C17.8828 27.7273 18.9039 27.4503 16.6616 27.0712C16.8184 29.3851 19.1761 31.4107 21.7516 33.59C23.343 34.9367 22.1388 33.886 23.9412 34.7253C24.1083 37.2166 23.8252 37.9893 24.2734 40.7896C24.5611 42.5862 24.7602 44.0088 23.8495 45.9838Z" fill="#8AC912" stroke="#8AC912" stroke-width="0.0762" stroke-miterlimit="22.9256"/>
<path fill-rule="evenodd" clip-rule="evenodd" d="M16.959 24.1853C19.6917 23.5251 19.5958 22.6183 23.3789 21.7012C25.3685 20.8037 25.1767 19.0706 26.3045 16.7928C27.4782 14.4216 26.2452 15.3702 28.7803 14.5243L28.9887 12.8138C25.8481 15.168 23.7518 15.3516 20.2471 18.8261C19.5128 19.5549 19.2497 19.607 18.6448 20.4999C17.7274 21.8554 17.075 22.5615 16.959 24.1853Z" fill="#8AC912" stroke="#8AC912" stroke-width="0.0762" stroke-miterlimit="22.9256"/>
<path fill-rule="evenodd" clip-rule="evenodd" d="M14.3352 43.5978C17.4402 43.7866 13.5699 38.938 14.003 35.9277C15.3825 37.4648 15.5151 37.9656 17.0183 39.1396C16.9131 42.7353 15.1886 41.5438 16.8306 43.4931C19.5194 42.4547 20.0356 39.9985 18.3627 37.894C17.2751 36.526 16.7754 36.9634 16.5831 35.1839C16.3732 33.2398 17.1648 33.8923 17.1122 31.6594C15.0762 31.5263 15.2541 32.2139 14.2346 32.5259L14.9406 27.8507C13.5833 29.5105 13.1707 36.8448 13.3976 38.9632L14.3352 43.5978Z" fill="#8AC912" stroke="#8AC912" stroke-width="0.0762" stroke-miterlimit="22.9256"/>
<path fill-rule="evenodd" clip-rule="evenodd" d="M2.78255 40.4105C2.23333 40.9573 1.73727 42.1663 1.18857 44.2254C1.01427 44.879 1.00753 46.1762 1.00083 46.8761C0.982261 48.5437 1.26952 52.109 2.57733 52.9327C1.89764 48.6629 1.43813 48.9456 4.0651 51.6897C5.70398 53.4021 5.36005 53.6363 7.55744 53.6951C6.89012 49.7456 1.26335 49.2148 4.4416 45.7986C5.38996 46.6724 5.39613 47.9671 5.87366 48.7944C5.74061 44.7939 6.15369 44.8872 6.71787 41.4721C6.56367 34.9719 4.72364 38.8579 2.78255 40.4105Z" fill="#96989A" stroke="#96989A" stroke-width="0.0762" stroke-miterlimit="22.9256"/>
<path fill-rule="evenodd" clip-rule="evenodd" d="M17.9842 15.0803L16.3118 14.0529C14.3744 13.3467 11.0259 12.7721 8.87389 13.2234C8.3355 16.4586 10.075 15.8907 12.6251 16.327C15.8513 16.879 16.6687 18.3052 17.9842 15.0803Z" fill="#96989A"/>
<path fill-rule="evenodd" clip-rule="evenodd" d="M4.79196 22.0963C5.99818 22.9093 7.7835 23.1203 9.26253 23.4767C12.1128 24.1627 12.5532 24.7734 13.3087 21.6291C11.8173 20.7166 10.4146 20.5629 8.5478 20.1002C5.94558 19.4555 4.37837 19.0036 4.79196 22.0963Z" fill="#96989A"/>
<path fill-rule="evenodd" clip-rule="evenodd" d="M28.2213 26.6438L31.1938 23.6562L29.3352 24.058C28.4183 22.4848 27.6056 21.2877 25.8687 21.4527C25.4035 24.5047 28.2857 23.1234 28.2213 26.6438Z" fill="#8AC912" stroke="#8AC912" stroke-width="0.0762" stroke-miterlimit="22.9256"/>
</svg>
