<svg width="95" height="97" viewBox="0 0 95 97" fill="none" xmlns="http://www.w3.org/2000/svg">
<path fill-rule="evenodd" clip-rule="evenodd" d="M67.757 56.287L68.4704 56.4505C81.561 59.4512 88.2507 66.7867 91.5975 73.8268C94.9191 80.8138 94.927 87.4543 94.7836 89.1739L94.7614 89.4402L94.6094 89.6599C94.0783 90.4272 93.0724 91.0345 91.9145 91.544C90.7107 92.0738 89.1628 92.5727 87.3507 93.0379C83.7222 93.9694 78.9262 94.7928 73.4644 95.4441C69.2843 95.9426 64.6998 96.342 59.9295 96.6113L59.9023 96.6278L59.5524 96.6323C51.9625 97.049 43.9189 97.1355 36.2977 96.7677C28.1072 96.3724 20.3638 95.4504 14.1821 93.8317C11.0911 93.0224 8.35896 92.0309 6.14615 90.8245C3.94002 89.6218 2.18503 88.17 1.14004 86.4081L0.979492 86.1374L1.0029 85.8235C1.68943 76.6207 6.21872 68.9464 11.7254 63.781C14.4797 61.1974 17.4971 59.2234 20.4338 57.9956C23.3589 56.7728 26.49 56.0569 29 56.5L33.3291 64.156L34.3766 66.0181L36.674 70.1952L45.9739 86.9866L49.0698 92.0174L52.6062 84.5518L56.0822 77.9859C57.0421 76.0754 58.0545 74.0853 59.0981 72.0685L61.6168 67.031L66.8308 57.7617L67 57.5C67.1735 57.202 66.8276 57.7925 67 57.5L67.757 56.287ZM60.8805 72.9759C62.9197 69.0353 65.0757 64.9984 67.1892 61.261L75.7361 71.2691L71.0356 74.9266L77.0895 83.878L59.3319 94.635L50.1609 94.7528C50.2359 94.5924 50.336 94.3786 50.4597 94.1153C50.7598 93.4765 51.1986 92.5468 51.7526 91.3844C52.8608 89.0595 54.4298 85.8044 56.2727 82.0843C56.7823 81.0557 57.3127 79.9918 57.8599 78.9026L58.8896 76.9576L60.8805 72.9759ZM63.6318 94.3685L79.9241 84.4992L73.7405 75.356L78.6164 71.5621L68.2435 59.4158C68.4079 59.1313 68.5718 58.849 68.7353 58.5692C80.7111 61.5192 86.7463 68.2803 89.7913 74.6855C92.7377 80.8833 92.9035 86.7985 92.8104 88.7C92.5364 88.9677 92.0043 89.3194 91.1089 89.7135C90.0436 90.1823 88.611 90.6495 86.8534 91.1007C83.3425 92.002 78.642 92.8125 73.2275 93.4582C70.2143 93.8175 66.9877 94.1249 63.6318 94.3685ZM21.2052 59.8409C23.5962 58.8413 25.8359 58.4213 27.7142 58.5833L18.4569 71.6057L23.2632 75.3451L17.0796 84.4882L33.8159 94.6268C26.6716 94.1761 20.0429 93.2989 14.6887 91.897C11.6922 91.1124 9.12654 90.1715 7.10349 89.0685C5.20585 88.034 3.84212 86.8877 3.0233 85.648C3.74773 77.1656 7.95674 70.0583 13.0936 65.2397C15.6938 62.8008 18.513 60.9664 21.2052 59.8409ZM47.3193 93.5436L44.2466 87.9958L43.6358 87.0033L34.9171 71.151L31.5827 65.1307L28.9018 60.3646L21.1968 71.2034L25.9682 74.9155L19.9142 83.867L37.6713 94.6239L46.9975 94.7438L47.3193 93.5436Z" fill="#96989A"/>
<path fill-rule="evenodd" clip-rule="evenodd" d="M43.3744 66.3392H52.5537L56.1448 70.1977L52.4204 77.3824L53.4842 82.4384L48.8288 92.5504L43.3739 81.5333L44.7049 78.0481L40.0488 70.3305L43.3744 66.3392Z" fill="#8AC912"/>
<path fill-rule="evenodd" clip-rule="evenodd" d="M47.9598 4.91852C35.9935 4.91852 26.0127 16.5177 26.0127 31.2032C26.0127 45.8894 35.9935 57.4886 47.9598 57.4886C59.9256 57.4886 69.9064 45.8894 69.9064 31.2032C69.9064 16.5177 59.9256 4.91852 47.9598 4.91852ZM24.0127 31.2032C24.0127 15.7516 34.5785 2.91852 47.9598 2.91852C61.3407 2.91852 71.9064 15.7516 71.9064 31.2032C71.9064 46.6554 61.3407 59.4886 47.9598 59.4886C34.5784 59.4886 24.0127 46.6554 24.0127 31.2032Z" fill="#96989A"/>
<path fill-rule="evenodd" clip-rule="evenodd" d="M58.1412 22.1655C46.4347 21.1025 36.0588 15.1136 36.0588 15.1136C32.1733 16.9012 29.2865 23.6839 27.5575 29.0154H68.1225C66.5358 25.8015 63.5942 22.6609 58.1412 22.1655ZM68.95 31.0154C69.9546 33.953 69.9799 36.4825 69.9799 36.4825L72.6673 29.3776C72.9172 28.7163 73.3072 16.7111 69.9805 12.5859C69.4989 11.9886 69.0397 11.3299 68.5579 10.6389C65.7123 6.55796 62.0815 1.35093 48.4302 1.00974C33.3218 0.63213 27.0547 11.3391 24.6003 15.5324C24.4615 15.7696 24.3348 15.9859 24.2195 16.1782C22.0649 19.7706 22.8734 29.978 23.2086 30.6811L25.6828 35.8698C25.6828 35.8698 26.1122 33.8298 26.9397 31.0154H30.7271V34.7546C30.7271 35.6088 30.9596 36.3861 31.3356 36.953C31.7094 37.5149 32.226 37.8654 32.7934 37.8654H43.9678C44.5346 37.8654 45.0517 37.5149 45.4283 36.9491C45.8015 36.3861 46.0341 35.6088 46.0341 34.7546V31.0154H49.4844V34.7546C49.4844 35.6088 49.7176 36.3861 50.093 36.953C50.4674 37.5149 50.984 37.8654 51.5508 37.8654H62.7255C63.2918 37.8654 63.8089 37.5149 64.1855 36.9491C64.5593 36.3861 64.792 35.6088 64.792 34.7546V31.0154H68.95ZM50.6911 34.7546V31.0154H63.5852V34.7546C63.5852 35.11 63.4887 35.4342 63.3325 35.6719C63.1769 35.904 62.9621 36.0491 62.7255 36.0491H51.5508C51.3148 36.0491 51.0994 35.904 50.9415 35.6685C50.7875 35.4342 50.6911 35.11 50.6911 34.7546ZM44.828 31.0154H31.9337V34.7546C31.9337 35.11 32.0302 35.4342 32.1836 35.6685C32.3421 35.904 32.5574 36.0491 32.7934 36.0491H43.9678C44.2043 36.0491 44.419 35.904 44.5747 35.6719C44.7309 35.4342 44.828 35.11 44.828 34.7546V31.0154Z" fill="#96989A"/>
<path d="M36.0588 15.1136L36.1088 15.027L36.064 15.0011L36.017 15.0227L36.0588 15.1136ZM58.1412 22.1655L58.1503 22.0659H58.1503L58.1412 22.1655ZM27.5575 29.0154L27.4624 28.9845L27.4199 29.1154H27.5575V29.0154ZM68.1225 29.0154V29.1154H68.2834L68.2122 28.9711L68.1225 29.0154ZM68.95 31.0154L69.0446 30.983L69.0215 30.9154H68.95V31.0154ZM69.9799 36.4825L69.8799 36.4835L69.8852 37.0155L70.0734 36.5179L69.9799 36.4825ZM72.6673 29.3776L72.7608 29.4129L72.7608 29.4129L72.6673 29.3776ZM69.9805 12.5859L69.9027 12.6486L69.9027 12.6486L69.9805 12.5859ZM68.5579 10.6389L68.6399 10.5818L68.5579 10.6389ZM48.4302 1.00974L48.4327 0.909768V0.909768L48.4302 1.00974ZM24.6003 15.5324L24.6866 15.5829L24.6003 15.5324ZM24.2195 16.1782L24.1337 16.1268L24.2195 16.1782ZM23.2086 30.6811L23.2989 30.638L23.2989 30.638L23.2086 30.6811ZM25.6828 35.8698L25.5925 35.9128L25.7198 36.1797L25.7807 35.8904L25.6828 35.8698ZM26.9397 31.0154V30.9154H26.8649L26.8438 30.9872L26.9397 31.0154ZM30.7271 31.0154H30.8271V30.9154H30.7271V31.0154ZM31.3356 36.953L31.2523 37.0083L31.2523 37.0084L31.3356 36.953ZM45.4283 36.9491L45.5115 37.0045L45.5116 37.0044L45.4283 36.9491ZM46.0341 31.0154V30.9154H45.9341V31.0154H46.0341ZM49.4844 31.0154H49.5844V30.9154H49.4844V31.0154ZM50.093 36.953L50.0097 37.0082L50.0098 37.0084L50.093 36.953ZM64.1855 36.9491L64.2687 37.0045L64.2688 37.0044L64.1855 36.9491ZM64.792 31.0154V30.9154H64.6919V31.0154H64.792ZM50.6911 31.0154V30.9154H50.5911V31.0154H50.6911ZM63.5852 31.0154H63.6852V30.9154H63.5852V31.0154ZM63.3325 35.6719L63.4156 35.7276L63.4161 35.7268L63.3325 35.6719ZM50.9415 35.6685L50.8579 35.7235L50.8584 35.7242L50.9415 35.6685ZM31.9337 31.0154V30.9154H31.8337V31.0154H31.9337ZM44.828 31.0154H44.928V30.9154H44.828V31.0154ZM32.1836 35.6685L32.1 35.7233L32.1007 35.7244L32.1836 35.6685ZM44.5747 35.6719L44.6578 35.7276L44.6583 35.7268L44.5747 35.6719ZM36.0588 15.1136C36.0088 15.2002 36.0088 15.2002 36.0089 15.2003C36.009 15.2003 36.0092 15.2004 36.0093 15.2005C36.0097 15.2007 36.0102 15.201 36.0108 15.2014C36.0121 15.2021 36.0141 15.2032 36.0166 15.2047C36.0218 15.2076 36.0294 15.212 36.0395 15.2177C36.0597 15.2292 36.0897 15.2462 36.1293 15.2684C36.2086 15.3127 36.3262 15.3778 36.4799 15.4609C36.7874 15.6273 37.2393 15.8658 37.8182 16.1554C38.9759 16.7345 40.6412 17.5175 42.6728 18.3337C46.7352 19.9659 52.2658 21.7324 58.1322 22.2651L58.1503 22.0659C52.3102 21.5356 46.7996 19.7762 42.7474 18.1481C40.7216 17.3343 39.0613 16.5536 37.9077 15.9765C37.3309 15.688 36.8808 15.4504 36.5751 15.285C36.4222 15.2024 36.3054 15.1377 36.227 15.0938C36.1878 15.0719 36.1581 15.0551 36.1383 15.0439C36.1284 15.0382 36.121 15.034 36.1161 15.0312C36.1136 15.0297 36.1117 15.0287 36.1105 15.028C36.1099 15.0276 36.1095 15.0274 36.1092 15.0272C36.109 15.0271 36.1089 15.0271 36.1089 15.027C36.1088 15.027 36.1088 15.027 36.0588 15.1136ZM27.6526 29.0462C28.5162 26.3833 29.6679 23.3615 31.0871 20.7838C32.5085 18.2019 34.1886 16.0841 36.1006 15.2044L36.017 15.0227C34.0435 15.9307 32.3374 18.0981 30.9118 20.6873C29.484 23.2807 28.3278 26.316 27.4624 28.9845L27.6526 29.0462ZM27.5575 29.1154H68.1225V28.9154H27.5575V29.1154ZM58.1322 22.2651C63.5423 22.7566 66.4575 25.8688 68.0328 29.0597L68.2122 28.9711C66.6141 25.7342 63.6461 22.5652 58.1503 22.0659L58.1322 22.2651ZM68.8553 31.0477C69.355 32.5087 69.6112 33.8688 69.7425 34.8636C69.8081 35.3609 69.8425 35.7667 69.8604 36.0477C69.8694 36.1883 69.8743 36.2976 69.8769 36.3716C69.8782 36.4086 69.879 36.4368 69.8794 36.4556C69.8796 36.465 69.8797 36.4721 69.8798 36.4768C69.8798 36.4791 69.8799 36.4808 69.8799 36.482C69.8799 36.4825 69.8799 36.4829 69.8799 36.4832C69.8799 36.4833 69.8799 36.4834 69.8799 36.4835C69.8799 36.4835 69.8799 36.4835 69.8799 36.4835C69.8799 36.4835 69.8799 36.4835 69.9799 36.4825C70.0799 36.4815 70.0799 36.4815 70.0799 36.4814C70.0799 36.4814 70.0799 36.4814 70.0799 36.4813C70.0799 36.4812 70.0799 36.4811 70.0799 36.4809C70.0799 36.4805 70.0799 36.48 70.0798 36.4794C70.0798 36.478 70.0798 36.4761 70.0798 36.4736C70.0797 36.4685 70.0795 36.461 70.0793 36.4511C70.0789 36.4315 70.0781 36.4024 70.0768 36.3645C70.0741 36.2887 70.0691 36.1775 70.06 36.035C70.0418 35.75 70.0071 35.3397 69.9408 34.8375C69.8083 33.8331 69.5495 32.4596 69.0446 30.983L68.8553 31.0477ZM70.0734 36.5179L72.7608 29.4129L72.5737 29.3422L69.8863 36.4471L70.0734 36.5179ZM72.7608 29.4129C72.7813 29.3588 72.7985 29.2615 72.8141 29.1378C72.8301 29.0101 72.8457 28.8433 72.8598 28.6424C72.888 28.2406 72.9108 27.6994 72.9207 27.0566C72.9405 25.7709 72.9086 24.0761 72.7648 22.2728C72.621 20.4697 72.3651 18.5558 71.9359 16.8328C71.5073 15.1118 70.9036 13.5713 70.0584 12.5231L69.9027 12.6486C70.7208 13.6631 71.3158 15.1702 71.7419 16.8811C72.1674 18.5899 72.4221 20.4921 72.5654 22.2887C72.7087 24.0849 72.7404 25.7733 72.7207 27.0535C72.7109 27.6936 72.6882 28.231 72.6603 28.6284C72.6463 28.8272 72.6311 28.9901 72.6156 29.1129C72.5997 29.2397 72.5845 29.3137 72.5737 29.3422L72.7608 29.4129ZM70.0584 12.5231C69.5794 11.929 69.1221 11.2733 68.6399 10.5818L68.4759 10.6961C68.9572 11.3865 69.4185 12.0481 69.9027 12.6486L70.0584 12.5231ZM68.6399 10.5818C67.217 8.54107 65.5879 6.20348 62.5991 4.3371C59.6101 2.47058 55.2708 1.08068 48.4327 0.909768L48.4277 1.10971C55.2409 1.27999 59.5426 2.6642 62.4932 4.50674C65.444 6.34942 67.0532 8.65583 68.4759 10.6961L68.6399 10.5818ZM48.4327 0.909768C33.2634 0.53064 26.9697 11.2864 24.514 15.4819L24.6866 15.5829C27.1397 11.3918 33.3801 0.73362 48.4277 1.10971L48.4327 0.909768ZM24.514 15.4819C24.3751 15.7192 24.2487 15.935 24.1337 16.1268L24.3052 16.2297C24.4209 16.0368 24.5478 15.82 24.6866 15.5829L24.514 15.4819ZM24.1337 16.1268C23.5849 17.042 23.2291 18.3692 23.0066 19.8461C22.7837 21.3254 22.6931 22.9651 22.6804 24.5123C22.6677 26.0598 22.733 27.5169 22.8225 28.6316C22.8672 29.1889 22.9181 29.6614 22.9684 30.0174C22.9936 30.1953 23.0188 30.3451 23.0432 30.4622C23.067 30.5763 23.0917 30.6681 23.1184 30.7241L23.2989 30.638C23.2837 30.6061 23.2628 30.5358 23.239 30.4214C23.2158 30.31 23.1913 30.1649 23.1665 29.9894C23.1168 29.6385 23.0664 29.1702 23.0218 28.6156C22.9328 27.5064 22.8678 26.0552 22.8804 24.514C22.893 22.9724 22.9833 21.3428 23.2043 19.8759C23.4257 18.4065 23.7768 17.1107 24.3052 16.2297L24.1337 16.1268ZM23.1184 30.7241L25.5925 35.9128L25.7731 35.8268L23.2989 30.638L23.1184 30.7241ZM25.6828 35.8698C25.7807 35.8904 25.7807 35.8904 25.7807 35.8904C25.7807 35.8904 25.7807 35.8904 25.7807 35.8903C25.7807 35.8903 25.7807 35.8902 25.7807 35.8901C25.7808 35.8898 25.7809 35.8895 25.781 35.889C25.7812 35.888 25.7815 35.8866 25.7819 35.8846C25.7827 35.8807 25.784 35.8749 25.7856 35.8672C25.7889 35.8516 25.7939 35.8285 25.8006 35.798C25.8139 35.7369 25.8338 35.6465 25.8604 35.5291C25.9134 35.2944 25.9928 34.9521 26.0981 34.5218C26.3086 33.6612 26.6224 32.4491 27.0357 31.0436L26.8438 30.9872C26.4295 32.3961 26.1149 33.6113 25.9038 34.4743C25.7983 34.9058 25.7186 35.2493 25.6653 35.485C25.6386 35.6029 25.6186 35.6938 25.6052 35.7554C25.5985 35.7861 25.5934 35.8095 25.5901 35.8253C25.5884 35.8331 25.5871 35.8391 25.5862 35.8431C25.5858 35.8451 25.5855 35.8466 25.5853 35.8476C25.5852 35.8481 25.5851 35.8485 25.585 35.8488C25.585 35.8489 25.585 35.849 25.585 35.8491C25.585 35.8491 25.585 35.8492 25.585 35.8492C25.585 35.8492 25.585 35.8492 25.6828 35.8698ZM30.7271 30.9154H26.9397V31.1154H30.7271V30.9154ZM30.8271 34.7546V31.0154H30.6271V34.7546H30.8271ZM31.4189 36.8977C31.0551 36.3492 30.8271 35.5917 30.8271 34.7546H30.6271C30.6271 35.626 30.8641 36.423 31.2523 37.0083L31.4189 36.8977ZM32.7934 37.7654C32.2703 37.7654 31.781 37.4421 31.4189 36.8976L31.2523 37.0084C31.6377 37.5878 32.1817 37.9654 32.7934 37.9654V37.7654ZM43.9678 37.7654H32.7934V37.9654H43.9678V37.7654ZM45.345 36.8937C44.98 37.4422 44.4902 37.7654 43.9678 37.7654V37.9654C44.579 37.9654 45.1234 37.5877 45.5115 37.0045L45.345 36.8937ZM45.9341 34.7546C45.9341 35.5917 45.706 36.3493 45.3449 36.8939L45.5116 37.0044C45.897 36.423 46.1341 35.626 46.1341 34.7546H45.9341ZM45.9341 31.0154V34.7546H46.1341V31.0154H45.9341ZM49.4844 30.9154H46.0341V31.1154H49.4844V30.9154ZM49.5844 34.7546V31.0154H49.3844V34.7546H49.5844ZM50.1764 36.8978C49.813 36.3491 49.5844 35.5916 49.5844 34.7546H49.3844C49.3844 35.6261 49.6221 36.423 50.0097 37.0082L50.1764 36.8978ZM51.5508 37.7654C51.0283 37.7654 50.539 37.4421 50.1762 36.8976L50.0098 37.0084C50.3957 37.5877 50.9397 37.9654 51.5508 37.9654V37.7654ZM62.7255 37.7654H51.5508V37.9654H62.7255V37.7654ZM64.1022 36.8937C63.7372 37.4422 63.2474 37.7654 62.7255 37.7654V37.9654C63.3362 37.9654 63.8806 37.5877 64.2687 37.0045L64.1022 36.8937ZM64.6919 34.7546C64.6919 35.5917 64.4637 36.3492 64.1022 36.8938L64.2688 37.0044C64.6548 36.423 64.8919 35.626 64.8919 34.7546H64.6919ZM64.6919 31.0154V34.7546H64.8919V31.0154H64.6919ZM68.95 30.9154H64.792V31.1154H68.95V30.9154ZM50.5911 31.0154V34.7546H50.7911V31.0154H50.5911ZM63.5852 30.9154H50.6911V31.1154H63.5852V30.9154ZM63.6852 34.7546V31.0154H63.4852V34.7546H63.6852ZM63.4161 35.7268C63.5843 35.4709 63.6852 35.1272 63.6852 34.7546H63.4852C63.4852 35.0928 63.3932 35.3974 63.249 35.617L63.4161 35.7268ZM62.7255 36.1491C63.0061 36.1491 63.2482 35.9772 63.4156 35.7276L63.2495 35.6162C63.1056 35.8308 62.9181 35.9491 62.7255 35.9491V36.1491ZM51.5508 36.1491H62.7255V35.9491H51.5508V36.1491ZM50.8584 35.7242C51.0279 35.977 51.2707 36.1491 51.5508 36.1491V35.9491C51.359 35.9491 51.1708 35.831 51.0246 35.6129L50.8584 35.7242ZM50.5911 34.7546C50.5911 35.127 50.6919 35.4708 50.8579 35.7235L51.0251 35.6136C50.8831 35.3976 50.7911 35.093 50.7911 34.7546H50.5911ZM31.9337 31.1154H44.828V30.9154H31.9337V31.1154ZM32.0337 34.7546V31.0154H31.8337V34.7546H32.0337ZM32.2673 35.6138C32.1258 35.3976 32.0337 35.093 32.0337 34.7546H31.8337C31.8337 35.127 31.9346 35.4708 32.1 35.7233L32.2673 35.6138ZM32.7934 35.9491C32.6016 35.9491 32.4135 35.831 32.2666 35.6127L32.1007 35.7244C32.2707 35.977 32.5132 36.1491 32.7934 36.1491V35.9491ZM43.9678 35.9491H32.7934V36.1491H43.9678V35.9491ZM44.4916 35.6162C44.3477 35.8308 44.1603 35.9491 43.9678 35.9491V36.1491C44.2483 36.1491 44.4904 35.9771 44.6577 35.7276L44.4916 35.6162ZM44.728 34.7546C44.728 35.0927 44.6355 35.3973 44.4911 35.617L44.6583 35.7268C44.8263 35.471 44.928 35.1273 44.928 34.7546H44.728ZM44.728 31.0154V34.7546H44.928V31.0154H44.728Z" fill="#96989A"/>
<path d="M24.3518 30.9467C24.3518 30.9467 21.6919 29.3503 21.0263 31.7452C20.3608 34.1406 21.5585 42.5223 27.2785 43.5869" stroke="#96989A" stroke-width="2" stroke-miterlimit="22.9256"/>
<path fill-rule="evenodd" clip-rule="evenodd" d="M71.6563 31.8046C71.6566 31.8044 71.6569 31.8042 71.1423 30.9468C70.6277 30.0893 70.6281 30.0891 70.6284 30.0889L70.6292 30.0885L70.6308 30.0875L70.6349 30.085L70.6461 30.0785C70.6549 30.0733 70.6663 30.0668 70.6802 30.0589C70.7079 30.0433 70.7456 30.0225 70.7921 29.998C70.8848 29.9492 71.0146 29.8847 71.1717 29.8168C71.4782 29.6843 71.9249 29.5231 72.4234 29.4567C72.9172 29.3908 73.55 29.4069 74.1464 29.7323C74.7719 30.0735 75.2076 30.6724 75.4313 31.4775L75.4314 31.4775C75.6449 32.246 75.6847 33.3585 75.5716 34.5508C75.4563 35.7667 75.1732 37.1577 74.6747 38.5108C73.6916 41.1792 71.7663 43.9433 68.3982 44.5701L68.0322 42.6039C70.3846 42.166 71.9184 40.207 72.798 37.8195C73.2308 36.6447 73.4798 35.4245 73.5806 34.3619C73.6836 33.2757 73.6236 32.4422 73.5044 32.013M71.6563 31.8046L71.6558 31.8049L71.6563 31.8046ZM71.6558 31.8049L71.6548 31.8055L71.6558 31.8049ZM71.6548 31.8055L71.6538 31.806L71.6548 31.8055ZM71.6536 31.8062C71.6531 31.8065 71.6532 31.8064 71.6538 31.806L71.6536 31.8062ZM71.6538 31.806L71.6646 31.7999L71.6538 31.806ZM71.6646 31.7999C71.6762 31.7933 71.6963 31.7822 71.7238 31.7677L71.6646 31.7999ZM71.7238 31.7677C71.7791 31.7386 71.8624 31.6971 71.965 31.6527L71.7238 31.7677ZM71.965 31.6527C72.178 31.5607 72.4379 31.4724 72.6877 31.4391L71.965 31.6527ZM72.6877 31.4391C72.942 31.4052 73.099 31.4391 73.1885 31.488L72.6877 31.4391ZM73.1885 31.488C73.249 31.5209 73.3953 31.6206 73.5044 32.0129L73.1885 31.488Z" fill="#96989A"/>
</svg>
