<svg width="98" height="90" viewBox="0 0 98 90" fill="none" xmlns="http://www.w3.org/2000/svg">
<path fill-rule="evenodd" clip-rule="evenodd" d="M29.789 62.6581L0 88.9075H15.9767L41.2996 64.9604L19.1997 80.8485H14.5954L29.789 62.6581Z" fill="#96989A"/>
<path fill-rule="evenodd" clip-rule="evenodd" d="M30.0156 55.0602L50.2744 60.5861L92.8625 16.3772C100.62 8.32344 90.5601 -2.73379 82.7335 4.17381C74.9062 11.0814 30.0156 55.0602 30.0156 55.0602Z" stroke="#8AC912" stroke-width="3" stroke-miterlimit="22.9256"/>
<path d="M42.8008 47.5775L46.1385 47.923L45.5628 50.2253L53.0452 50.34" stroke="#8AC912" stroke-width="2" stroke-miterlimit="22.9256"/>
<path d="M47.9795 43.2029L51.3177 43.5478L50.7422 45.8508L58.2239 45.9655" stroke="#8AC912" stroke-width="2" stroke-miterlimit="22.9256"/>
<path d="M52.123 39.5191L55.4608 39.864L54.8858 42.1662L62.3677 42.2817" stroke="#8AC912" stroke-width="2" stroke-miterlimit="22.9256"/>
<path d="M56.6113 35.9499L59.9497 36.2948L59.374 38.5977L66.8557 38.7125" stroke="#8AC912" stroke-width="2" stroke-miterlimit="22.9256"/>
<path d="M60.9814 32.1506L64.3197 32.4962L63.7442 34.7984L71.2266 34.9131" stroke="#8AC912" stroke-width="2" stroke-miterlimit="22.9256"/>
<path d="M28.0674 88.909H86.3101" stroke="#96989A" stroke-width="2" stroke-miterlimit="22.9256"/>
</svg>
