<svg width="128" height="183" viewBox="0 0 128 183" fill="none" xmlns="http://www.w3.org/2000/svg">
<path fill-rule="evenodd" clip-rule="evenodd" d="M30.5521 132.377C30.5521 128.766 32.7864 132.15 31.3906 132.377C31.3741 132.38 30.5521 136.317 30.5521 132.377ZM54.5396 92.8553V87.2096C61.0552 87.3542 59.2693 88.621 64.4167 88.621C69.5648 88.621 67.7788 87.3542 74.2943 87.2096C74.2943 94.564 74.8939 97.1292 64.4167 104.147C61.7057 102.331 54.5396 96.8585 54.5396 92.8553ZM89.8159 66.0373H92.6379V81.5632H82.7602C86.1487 76.5013 89.641 73.8825 89.8159 66.0373ZM36.1962 56.1566H37.6071C37.6071 69.4606 40.8167 73.7108 46.0731 81.5632H36.1962V56.1566ZM44.662 63.2138C44.662 49.4594 44.1682 57.3653 57.9995 46.9139C62.9508 43.1723 66.857 39.7702 70.0612 34.9844C74.7135 38.1005 77.8003 41.9689 84.1713 43.4537C84.1713 52.1039 85.4918 63.585 82.4163 69.9276C72.2462 90.901 44.662 80.3485 44.662 63.2138ZM91.2269 58.9795V49.0994C94.3711 49.9389 95.4598 49.429 95.4598 53.3337V54.7452C95.4598 59.5937 94.2786 57.5965 91.2269 58.9795ZM36.1962 50.5109C36.1962 36.4031 33.8165 22.185 48.6059 12.1115C60.0932 4.28745 75.5507 6.34153 84.8018 16.0043C91.7174 23.2279 92.6379 28.4186 92.6379 42.0416L70.0612 27.9272C66.1353 30.5566 53.816 43.1248 46.5049 46.7079C42.9962 48.4271 39.5404 48.9053 36.1962 50.5109ZM29.1411 37.8073C29.1411 93.6875 24.9114 88.621 44.662 88.621L38.264 92.1011C-4.40917 109.468 0.919866 100.276 0.919866 177.544C0.919866 180.796 1.90176 181.779 5.15358 181.779H84.1713C88.1448 181.779 86.7839 181.168 88.4042 178.956C86.7516 176.577 88.2022 176.133 84.1713 176.133H54.5396V149.315C54.5396 145.339 53.929 146.701 51.7178 145.08C47.2035 148.388 49.6782 144.075 48.8344 150.665C48.596 152.526 48.8555 158.386 48.8958 160.606C49.2186 178.416 51.9005 176.133 29.1411 176.133V147.903C29.1411 143.928 28.5304 145.289 26.3192 143.668C23.9409 145.322 23.4966 143.871 23.4966 147.903V176.133H7.97559V123.908C7.97559 115.742 11.1851 111.62 16.1615 108.102C19.3856 105.823 28.99 102.346 33.3741 101.324C26.953 113.463 29.1814 119.913 26.7114 125.712C25.575 128.378 23.4966 127.954 23.4966 133.788C23.4966 141.229 39.018 145.37 39.018 130.965C39.018 127.086 28.9319 123.397 39.0194 105.56C42.3003 99.7579 43.5713 99.2441 48.8958 95.6782C49.3513 101.158 51.6715 102.68 60.1836 108.382C49.8749 123.781 48.8958 107.647 48.8958 139.434C48.8958 143.409 49.5059 142.048 51.7178 143.668C56.7233 140 54.0947 135.963 54.444 128.047C54.852 118.794 69.7391 108.199 76.6277 102.247C79.8974 99.4211 79.513 100.79 79.9382 95.6782C86.2953 99.9363 87.5868 101.5 91.2269 108.382C80.0815 109.309 82.7602 117.351 82.7602 133.788C82.7602 137.875 88.5845 141.996 92.0932 140.089C99.8692 135.864 88.4042 135.026 88.4042 129.554C88.4042 113.037 85.9526 115.439 103.926 115.439C103.926 142.294 103.376 128.828 99.4987 135.364C99.4914 135.375 96.5513 134.095 98.9613 138.813C100.395 141.62 99.2003 140.445 102.159 140.528C113.064 140.834 112.397 118.155 108.506 112.269C105.939 108.387 104.255 108.382 98.2818 108.382C97.4175 104.67 96.9989 104.233 95.4598 101.324C106.211 103.83 120.858 109.651 120.858 122.496V176.133H105.337V147.903C105.337 143.928 104.727 145.289 102.515 143.668C100.137 145.322 99.6929 143.871 99.6929 147.903V176.133H91.2269V181.779C111.935 181.779 127.913 185.002 127.913 177.544V126.73C127.913 94.9563 95.2473 98.2507 84.1713 88.621C103.55 88.621 99.5403 88.0193 99.6294 68.7961C99.6677 60.5693 101.827 58.5845 102.026 54.5556C102.206 50.9072 99.8163 47.2151 99.6882 39.224C98.8457 -13.1623 29.1411 -9.92799 29.1411 37.8073Z" fill="#96989A"/>
<path d="M30.9052 142.242C36.3513 142.242 40.7662 137.825 40.7662 132.377C40.7662 126.93 36.3513 122.513 30.9052 122.513C25.459 122.513 21.0439 126.93 21.0439 132.377C21.0439 137.825 25.459 142.242 30.9052 142.242Z" fill="#8AC912" stroke="#8AC912" stroke-width="0.2" stroke-miterlimit="22.9256"/>
</svg>
