<svg width="99" height="88" viewBox="0 0 99 88" fill="none" xmlns="http://www.w3.org/2000/svg">
<path d="M41.9775 11.2837C41.9775 16.9856 46.0985 21.6106 51.1791 21.6106C56.2596 21.6106 60.3806 16.9856 60.3806 11.2837C60.3806 5.58179 56.2596 0.956787 51.1791 0.956787C46.0985 0.956787 41.9775 5.58179 41.9775 11.2837Z" fill="#8AC912"/>
<path d="M31.2407 56.0373C31.2407 56.0373 36.1799 30.8266 36.6041 29.2169C38.8565 20.1256 47.5833 24.1385 50.6639 26.0655C53.6234 27.6639 60.3806 39.9065 60.3806 39.9065C60.3806 39.9065 65.6227 41.4029 69.7134 42.6951C73.8041 43.9874 73.4203 52.4552 68.1782 52.4552C61.7846 51.4577 57.0575 51.163 54.6334 49.1565C52.2093 47.1501 50.4821 41.8109 50.4821 41.8109L47.4722 54.0196L31.2407 56.0373Z" fill="#8AC912"/>
<path d="M80.127 58.8259C80.127 64.5278 84.2479 69.1528 89.3285 69.1528C94.409 69.1528 98.53 64.5278 98.53 58.8259C98.53 53.124 94.409 48.499 89.3285 48.499C84.2479 48.499 80.127 53.124 80.127 58.8259Z" fill="#96989A"/>
<path d="M1.62618 76.8284H68.102L70.8378 82.6979H1.62618C1.05606 82.6979 0.5 82.1614 0.5 81.3729V78.1535C0.5 77.3649 1.05606 76.8284 1.62618 76.8284Z" stroke="#8AC912"/>
<path d="M7.0905 66.217C7.0905 66.217 6.89859 63.417 9.77723 62.7709C12.6559 62.1247 67.0873 56.967 67.0873 56.967C67.0873 56.967 73.4102 55.6747 76.6727 63.6324C79.9351 71.5901 83.1875 76.3285 83.1875 76.3285C83.1875 76.3285 88.5609 74.8321 93.7324 73.5399C97.9443 72.463 101.126 78.3916 97.1766 82.7899C86.6317 86.236 82.2279 86.8821 82.2279 86.8821C82.2279 86.8821 79.3998 87.9023 77.2484 84.9437C74.8344 80.7154 71.2083 73.4265 71.2083 73.4265C71.2083 73.4265 13.5649 73.3812 9.96914 73.3245C6.13096 73.2565 7.0905 66.217 7.0905 66.217Z" fill="#96989A"/>
</svg>
