<svg width="97" height="96" viewBox="0 0 97 96" fill="none" xmlns="http://www.w3.org/2000/svg">
<path d="M29.8154 67.7736L46.2204 9.00897" stroke="#96989A" stroke-miterlimit="22.9256"/>
<path d="M64.5318 58.9973L11.5019 58.6155L39.3517 40.681L9.97559 26.9436L74.0692 18.9303L67.2022 58.6155L43.1667 41.8253L88.5667 39.9174" stroke="#96989A" stroke-miterlimit="22.9256"/>
<path d="M33.2478 94.4849C33.2478 94.4849 39.7332 76.1682 35.1553 74.2603C30.5775 72.3524 13.4096 76.5505 8.44955 63.5766C3.49 50.6022 3.1083 14.3504 39.352 8.62727C75.5951 2.90364 88.5669 31.9047 88.5669 39.5362C88.5669 47.1677 85.1336 57.4712 73.6882 58.6155C69.038 59.0802 67.6141 62.9308 64.3071 65.4401C60.5618 68.2821 55.8303 70.5782 50.7372 72.0488C46.7697 73.1942 46.2449 73.3489 44.9652 77.1176L39.352 93.3396" stroke="#96989A" stroke-width="3" stroke-miterlimit="22.9256" stroke-linecap="round" stroke-linejoin="round"/>
<path fill-rule="evenodd" clip-rule="evenodd" d="M75.0154 11.1122C79.0188 11.1122 82.2641 14.3587 82.2641 18.3625C82.2641 22.3667 79.0188 25.6132 75.0154 25.6132C71.012 25.6132 67.7666 22.3667 67.7666 18.3625C67.7666 14.3587 71.012 11.1122 75.0154 11.1122Z" fill="#8AC912" stroke="#FEFEFE" stroke-width="0.25" stroke-miterlimit="22.9256"/>
<path fill-rule="evenodd" clip-rule="evenodd" d="M88.7512 32.8631C92.7547 32.8631 96 36.1091 96 40.1128C96 44.1176 92.7547 47.3636 88.7512 47.3636C84.7478 47.3636 81.502 44.1176 81.502 40.1128C81.502 36.1091 84.7478 32.8631 88.7512 32.8631Z" fill="#8AC912" stroke="#FEFEFE" stroke-width="0.25" stroke-miterlimit="22.9256"/>
<path fill-rule="evenodd" clip-rule="evenodd" d="M46.2155 1C50.219 1 53.4642 4.246 53.4642 8.25078C53.4642 12.2545 50.219 15.5005 46.2155 15.5005C42.2121 15.5005 38.9668 12.2545 38.9668 8.25078C38.9668 4.246 42.2121 1 46.2155 1Z" fill="#8AC912" stroke="#FEFEFE" stroke-width="0.25" stroke-miterlimit="22.9256"/>
<path fill-rule="evenodd" clip-rule="evenodd" d="M11.4953 19.3125C15.9222 19.3125 19.5112 22.9018 19.5112 27.3301C19.5112 31.7578 15.9222 35.3476 11.4953 35.3476C7.06845 35.3476 3.47949 31.7578 3.47949 27.3301C3.47949 22.9018 7.06845 19.3125 11.4953 19.3125Z" fill="#8AC912" stroke="#FEFEFE" stroke-width="0.25" stroke-miterlimit="22.9256"/>
<path fill-rule="evenodd" clip-rule="evenodd" d="M8.06288 51.7471C11.9628 51.7471 15.1253 54.9096 15.1253 58.8114C15.1253 62.7127 11.9628 65.8753 8.06288 65.8753C4.16238 65.8753 1 62.7127 1 58.8114C1 54.9096 4.16238 51.7471 8.06288 51.7471Z" fill="#8AC912" stroke="#FEFEFE" stroke-width="0.25" stroke-miterlimit="22.9256"/>
<path fill-rule="evenodd" clip-rule="evenodd" d="M39.1564 31.9045C43.7944 31.9045 47.5545 35.6649 47.5545 40.3039C47.5545 44.9429 43.7944 48.7037 39.1564 48.7037C34.5189 48.7037 30.7588 44.9429 30.7588 40.3039C30.7588 35.6649 34.5189 31.9045 39.1564 31.9045Z" fill="#8AC912" stroke="#FEFEFE" stroke-width="0.25" stroke-miterlimit="22.9256"/>
<path fill-rule="evenodd" clip-rule="evenodd" d="M28.092 67.583C31.3606 67.583 34.0098 70.2328 34.0098 73.5015C34.0098 76.7708 31.3606 79.4206 28.092 79.4206C24.824 79.4206 22.1748 76.7708 22.1748 73.5015C22.1748 70.2328 24.824 67.583 28.092 67.583Z" fill="#8AC912" stroke="#FEFEFE" stroke-width="0.25" stroke-miterlimit="22.9256"/>
<path fill-rule="evenodd" clip-rule="evenodd" d="M66.8138 54.9887C69.4504 54.9887 71.5881 57.1268 71.5881 59.764C71.5881 62.4016 69.4504 64.5398 66.8138 64.5398C64.1767 64.5398 62.0391 62.4016 62.0391 59.764C62.0391 57.1268 64.1767 54.9887 66.8138 54.9887Z" fill="#8AC912" stroke="#FEFEFE" stroke-width="0.25" stroke-miterlimit="22.9256"/>
</svg>
