<svg width="75" height="81" viewBox="0 0 75 81" fill="none" xmlns="http://www.w3.org/2000/svg">
<path d="M57.7 9.38338C57 8.88338 56 9.08338 55.5 9.88338C55 10.5834 55.2 11.5834 56 12.0834C65.8 18.3834 71.6 29.1834 71.6 40.7834C71.6 59.6834 56.3 74.9834 37.4 74.9834C33.1 74.9834 28.8 74.1834 24.8 72.5834L27 72.0834C27.9 71.8834 28.4 70.9834 28.2 70.1834C28 69.2834 27.2 68.7834 26.3 68.9834L19.5 70.5834C19 70.6834 18.6 70.9834 18.4 71.4834V71.5834C18.2 71.9834 18.2 72.4834 18.4 72.9834L21.6 79.1834C21.9 79.6834 22.4 80.0834 23 80.0834C23.2 80.0834 23.5 79.9834 23.7 79.8834C24.5 79.4834 24.8 78.4834 24.4 77.7834L23.3 75.5834C27.8 77.3834 32.6 78.3834 37.4 78.3834C58 78.3834 74.8 61.5834 74.8 40.9834C74.8 28.0834 68.4 16.2834 57.7 9.38338Z" fill="#96989A"/>
<path d="M3.2 40.7834C3.2 21.8834 18.6 6.58339 37.4 6.58339C40.2 6.58339 43 6.88339 45.7 7.58339L43.7 8.38339C42.9 8.68339 42.5 9.58339 42.8 10.4834C43 11.0834 43.6 11.4834 44.3 11.4834C44.5 11.4834 44.7 11.4834 44.9 11.3834L51.4 8.88339C51.9 8.68339 52.2 8.28339 52.3 7.88339V7.78339C52.3 7.78339 52.3 7.78339 52.3 7.68339C52.4 7.28339 52.4 6.78339 52.1 6.28339L48 0.583386C47.4 -0.0166143 46.5 -0.216614 45.7 0.283386C45 0.783386 44.8 1.78339 45.3 2.48339L46.8 4.58339C43.7 3.78339 40.6 3.38339 37.3 3.38339C16.8 3.38339 0 20.1834 0 40.7834C0 51.8834 4.9 62.3834 13.5 69.5834C13.8 69.7834 14.2 69.9834 14.5 69.9834C15 69.9834 15.4 69.7834 15.7 69.3834C16.3 68.6834 16.2 67.6834 15.5 67.1834C7.7 60.5834 3.2 50.9834 3.2 40.7834Z" fill="#96989A"/>
<path d="M47.9 32.6834C46.5 31.2834 44.7 30.5834 42.8 30.5834C40.9 30.5834 39.1 31.2834 37.7 32.6834L37.4 33.0834L37.1 32.7834C35.7 31.3834 33.9 30.6834 32 30.6834C30.1 30.6834 28.3 31.3834 26.9 32.7834C24.1 35.5834 24.1 40.1834 26.9 42.9834L37.4 53.3834L47.9 42.8834C50.7 40.0834 50.7 35.4834 47.9 32.6834ZM45.6 40.5834L37.4 48.8834L29.2 40.6834C27.6 39.0834 27.6 36.5834 29.2 34.9834C30 34.1834 31 33.7834 32 33.7834C33.1 33.7834 34.1 34.1834 34.8 34.9834L37.4 37.5834L40 34.9834C41.5 33.4834 44.1 33.4834 45.7 34.9834C47.2 36.5834 47.2 39.0834 45.6 40.5834Z" fill="#8AC912"/>
<path d="M23.6001 62.3834C22.9001 61.8834 21.9001 62.0834 21.4001 62.8834L19.7001 65.5834C19.2001 66.2834 19.4001 67.2834 20.2001 67.7834C20.5001 67.9834 20.8001 67.9834 21.1001 67.9834C21.6001 67.9834 22.1001 67.6834 22.4001 67.2834L24.1001 64.5834C24.6001 63.8834 24.4001 62.8834 23.6001 62.3834Z" fill="#8AC912"/>
<path d="M10.4999 56.6834C10.7999 56.6834 10.9999 56.5834 11.1999 56.4834L14.0999 54.9834C14.8999 54.5834 15.1999 53.5834 14.7999 52.7834C14.3999 51.9834 13.3999 51.6834 12.5999 52.0834L9.69989 53.5834C8.89989 53.9834 8.59989 54.9834 8.99989 55.7834C9.39989 56.3834 9.89989 56.6834 10.4999 56.6834Z" fill="#8AC912"/>
<path d="M10.1999 41.6834C11.0999 41.6834 11.7999 40.9834 11.7999 40.0834C11.7999 39.1834 11.0999 38.4834 10.1999 38.4834L6.9999 38.3834C6.0999 38.3834 5.3999 39.0834 5.3999 39.9834C5.3999 40.8834 6.0999 41.5834 6.9999 41.5834L10.1999 41.6834Z" fill="#8AC912"/>
<path d="M15.3999 27.5833C15.8999 26.7833 15.5999 25.8833 14.8999 25.3833L12.0999 23.6833C11.2999 23.1833 10.3999 23.4833 9.8999 24.1833C9.3999 24.9833 9.6999 25.8833 10.3999 26.3833L13.1999 28.0833C13.4999 28.2833 13.6999 28.2833 13.9999 28.2833C14.5999 28.3833 15.0999 28.0833 15.3999 27.5833Z" fill="#8AC912"/>
<path d="M25.4 16.2833L23.8 13.4833C23.4 12.6833 22.4 12.4833 21.6 12.8833C20.8 13.2833 20.6 14.2834 21 15.0834L22.6 17.8833C22.9 18.3833 23.4 18.6834 24 18.6834C24.3 18.6834 24.5 18.5833 24.8 18.4833C25.5 18.0833 25.8 17.0833 25.4 16.2833Z" fill="#8AC912"/>
<path d="M37.4 15.1834C38.3 15.1834 39 14.4834 39 13.5834V10.3834C39 9.48345 38.3 8.78345 37.4 8.78345C36.5 8.78345 35.8 9.48345 35.8 10.3834V13.5834C35.8 14.4834 36.5 15.1834 37.4 15.1834Z" fill="#8AC912"/>
<path d="M35.8 67.9834V71.1834C35.8 72.0834 36.5 72.7834 37.4 72.7834C38.3 72.7834 39 72.0834 39 71.1834V67.9834C39 67.0834 38.3 66.3834 37.4 66.3834C36.5 66.3834 35.8 67.0834 35.8 67.9834Z" fill="#8AC912"/>
<path d="M51 13.4833L49.4 16.2833C49 17.0833 49.2 17.9833 50 18.4833C50.2 18.5833 50.5 18.6834 50.8 18.6834C51.4 18.6834 51.9 18.3833 52.2 17.8833L53.8 15.0834C54.2 14.2834 54 13.3833 53.2 12.8833C52.4 12.4833 51.4999 12.6833 51 13.4833Z" fill="#8AC912"/>
<path d="M62.7 23.7834L59.9 25.4834C59.1 25.9834 58.9 26.8834 59.4 27.6834C59.7 28.1834 60.2 28.4834 60.8 28.4834C61.1 28.4834 61.4 28.3834 61.6 28.2834L64.4 26.5834C65.2 26.0834 65.4 25.1834 64.9 24.3834C64.4 23.5834 63.4 23.2834 62.7 23.7834Z" fill="#8AC912"/>
<path d="M69.4 39.9834C69.4 39.0834 68.6 38.3834 67.8 38.3834L64.6 38.4834C63.7 38.4834 63 39.2834 63 40.0834C63 40.9834 63.7 41.6834 64.6 41.6834L67.8 41.5834C68.8 41.5834 69.5 40.8834 69.4 39.9834Z" fill="#8AC912"/>
<path d="M62.1999 52.1834C61.3999 51.7834 60.4999 52.0834 59.9999 52.8834C59.5999 53.6834 59.8999 54.5834 60.6999 55.0834L63.5999 56.5834C63.7999 56.6834 64.0999 56.7834 64.2999 56.7834C64.8999 56.7834 65.3999 56.4834 65.6999 55.9834C66.0999 55.1834 65.7999 54.2834 64.9999 53.7834L62.1999 52.1834Z" fill="#8AC912"/>
<path d="M51.1999 62.3834C50.4999 62.8834 50.1999 63.8834 50.6999 64.5834L52.3999 67.2834C52.6999 67.7834 53.1999 67.9834 53.6999 67.9834C53.9999 67.9834 54.2999 67.8834 54.5999 67.7834C55.2999 67.2834 55.5999 66.2834 55.0999 65.5834L53.3999 62.8834C52.8999 62.1834 51.8999 61.9834 51.1999 62.3834Z" fill="#8AC912"/>
</svg>
