<svg width="92" height="97" viewBox="0 0 92 97" fill="none" xmlns="http://www.w3.org/2000/svg">
<path fill-rule="evenodd" clip-rule="evenodd" d="M16.1019 58.7199C15.1934 61.8075 15.6996 61.5206 12.6408 62.4813C7.03593 64.2399 3.48217 65.7837 2.30024 71.9054C1.53786 75.8542 -0.817291 92.8123 0.291936 95.9572L33.4132 96.0312C34.6866 92.0097 36.709 82.2174 41.376 82.6357L42.0137 86.828C44.593 86.4204 46.3725 84.6445 47.9313 84.7485C49.5828 84.8593 51.0042 86.756 53.5148 86.9641C53.9397 84.1661 53.2239 83.2615 55.1456 82.2708L53.6155 79.9224C58.7621 73.2884 58.2678 66.5702 53.8509 61.8289C46.7787 56.1495 41.2152 63.8663 38.3157 61.8542C36.9404 59.772 38.083 59.2403 36.2754 57.323C32.8316 57.5431 31.3829 61.2945 26.5858 61.3032C21.6353 61.3118 20.7316 57.6945 16.5688 57.2055L16.1019 58.7199Z" fill="#96989A"/>
<path fill-rule="evenodd" clip-rule="evenodd" d="M57.9468 61.391C62.6038 60.6018 62.4924 57.5389 62.7999 57.0019C66.5231 59.4723 70.2223 63.9081 77.3166 57.675C78.77 56.3974 77.6087 56.9225 78.9161 56.6857C78.9434 60.1408 80.2647 60.8159 83.463 61.3176C83.2542 55.5775 83.5991 44.7231 82.7287 39.6188C81.7282 33.7453 76.8563 29.2754 70.4544 29.3268C63.8037 29.3795 59.6356 33.766 58.297 39.6175C57.7554 41.9811 57.5573 58.3835 57.9468 61.391Z" fill="#96989A"/>
<path fill-rule="evenodd" clip-rule="evenodd" d="M27.0911 57.561C32.692 57.3155 35.9729 52.5574 37.6104 48.6173C46.5636 27.0799 21.1301 18.349 14.7295 34.3845C11.4425 42.615 16.6345 58.018 27.0911 57.561Z" fill="#96989A"/>
<path fill-rule="evenodd" clip-rule="evenodd" d="M24.464 31.2876C18.4816 33.0302 17.447 38.3566 18.8244 43.7845C19.8936 48.0015 23.0692 55.0432 28.7861 52.5968C36.9156 49.1197 37.7508 27.4175 24.464 31.2876Z" fill="#F9F8F8"/>
<path fill-rule="evenodd" clip-rule="evenodd" d="M17.4551 67.8031C17.6172 70.3343 19.887 74.5246 21.133 76.7742C22.503 79.2473 24.1278 82.8139 26.5864 84.1422C30.1896 82.2174 35.6911 70.3129 36.2527 67.7304C33.7881 68.084 29.2251 72.3744 28.0312 69.6458L26.583 64.6836C24.9642 68.1894 25.1976 71.0868 22.5596 70.9534C21.0355 70.876 18.8018 68.5457 17.4551 67.8031Z" fill="#E5EAED"/>
<path fill-rule="evenodd" clip-rule="evenodd" d="M51.6958 64.1978C51.8946 66.1878 52.623 71.072 48.0153 70.9686C44.1853 70.8525 42.5298 65.3112 46.9881 64.9837C48.148 65.3386 48.4075 66.3773 48.0086 67.9317C51.0375 66.7896 45.3453 59.9574 41.7428 66.4614C39.3783 70.7304 41.3493 76.3258 43.5711 78.7515C50.8982 86.7573 59.6031 69.9285 51.6958 64.1978Z" fill="#F9F8F8"/>
<path fill-rule="evenodd" clip-rule="evenodd" d="M78.0624 45.5658C68.2354 46.9821 66.0976 41.0826 63.8631 42.8492C62.3457 44.0487 63.0667 45.8466 63.687 48.6833C65.6593 57.7031 74.8174 61.7899 78.0624 45.5658Z" fill="#F9F8F8"/>
<path fill-rule="evenodd" clip-rule="evenodd" d="M77.0515 62.62C77.6438 61.1323 77.5145 61.0295 76.2419 60.4992C74.2315 61.3351 75.27 64.376 70.5689 64.3359C66.0093 64.2959 67.0419 61.3198 64.9035 60.4932C63.8723 61.0843 63.5762 60.786 64.0797 62.3058C64.2498 62.8161 64.9781 63.8743 65.4517 64.3419C68.6913 67.5415 75.3013 67.0011 77.0515 62.62Z" fill="#8AC912"/>
<path fill-rule="evenodd" clip-rule="evenodd" d="M29.5332 64.1065L30.3951 67.4349C36.018 65.9191 36.4554 60.6581 33.3452 62.1184C31.9451 62.7749 30.7585 63.4027 29.5332 64.1065Z" fill="#E5EAED"/>
<path fill-rule="evenodd" clip-rule="evenodd" d="M17.8926 64.0884C19.4574 65.5801 20.8687 67.2846 23.0538 67.5928C23.8963 65.6107 23.8122 66.0911 24.2324 64.2558C23.0865 63.6087 19.4741 61.9395 18.4249 61.6819L17.8926 64.0884Z" fill="#E5EAED"/>
<path fill-rule="evenodd" clip-rule="evenodd" d="M52.6417 0H43.0283V9.9151H33.2646V19.58H43.0283V29.1962H52.6417V19.58H62.2065V9.9151H52.6417V0Z" fill="#8AC912"/>
<path fill-rule="evenodd" clip-rule="evenodd" d="M56.5393 65.1272L58.7311 64.3299C58.7311 64.3299 59.7282 68.9132 61.2223 70.8059C62.7164 72.6992 83.6368 65.2266 84.0357 64.1305C88.4339 52.0419 91.7816 93.4347 91.8063 93.9237C91.9057 95.9164 62.2181 95.4187 62.2181 95.4187C61.5011 92.6888 59.2413 84.2107 55.8923 82.1166C55.6275 81.4761 54.9918 80.6162 54.5576 79.895C56.9115 76.8222 59.8343 71.3216 56.5393 65.1272Z" fill="#96989A"/>
<path fill-rule="evenodd" clip-rule="evenodd" d="M81.5583 70.8338C81.581 70.8665 81.6036 70.8985 81.6257 70.9312C83.7088 73.9987 84.0996 77.61 81.9312 82.1192C79.7407 86.6771 81.1341 95.322 81.1341 95.322L83.2272 95.3713C83.2272 95.3713 80.5617 85.7805 82.9277 81.4708C85.2576 77.2271 83.5067 72.8613 81.6451 70.9225C81.6171 70.8925 81.5877 70.8625 81.5583 70.8338Z" fill="#FEFEFE"/>
<path fill-rule="evenodd" clip-rule="evenodd" d="M26.5301 66.1926L24.6865 70.6524L26.3054 72.8573L27.9368 70.7018L26.5301 66.1926Z" fill="#8AC912"/>
<path fill-rule="evenodd" clip-rule="evenodd" d="M26.2354 73.4944L23.9443 80.0704L26.3348 83.0098L29.3236 80.1698L26.2354 73.4944Z" fill="#8AC912"/>
</svg>
