<svg width="76" height="95" viewBox="0 0 76 95" fill="none" xmlns="http://www.w3.org/2000/svg">
<path d="M75.2 55.4L67.5 43.7C67.1 43 66.9 42.2 66.8 41.4C65.9 31.1 59.8 22.3 51.1 17.6V25.6C51.1 33.7 44.8 40.4 36.9 41C37 41.5 37.2 42.1 37.4 42.7C38.6 45.7 37.7 49 35.3 51C34 52.2 32.2 52.8 30.4 52.8C29.1 52.8 27.8 52.4 26.7 51.8C21.7 49 17.5 44.6 14.5 40.9H10.9C9.5 40.9 8.1 40.7 6.8 40.4C6.7 41.6 6.6 42.7 6.6 43.9C6.6 53.7 11.3 63.5 18.7 69.7C19.6 70.5 20.1 71.5 20.1 72.7V89.9C20.1 91.3 21.1 92.4 22.5 92.5L48.3 94.8C49.8 94.9 51.2 93.7 51.2 92.2V80.2C51.2 79.4 51.9 78.7 52.7 78.7H61.8C64.6 78.7 66.8 76.4 66.8 73.7V61.6C66.8 61.1 67.2 60.6 67.8 60.6H72.2C75 60.6 76.7 57.7 75.2 55.4Z" fill="#96989A"/>
<path d="M16.9 36.8C19.3 40 23.8 45.2 29.1 48.2C29.6 48.5 30.1 48.6 30.6 48.6C31.3 48.6 32 48.3 32.6 47.8C33.6 46.9 33.9 45.6 33.5 44.3C32.4 41.4 32.1 38.7 32.1 36.7H35.8C41.9 36.7 46.9 31.7 46.9 25.6V11.1C46.9 5 41.9 0 35.8 0H11.1C5 0 0 5 0 11.1V25.7C0 31.8 5 36.8 11.1 36.8H16.9ZM13.2 10.2H33.6C35 10.2 36.1 11.3 36.1 12.7C36.1 14.1 35 15.2 33.6 15.2H13.2C11.8 15.2 10.7 14.1 10.7 12.7C10.7 11.3 11.9 10.2 13.2 10.2ZM13.2 21.6H33.6C35 21.6 36.1 22.7 36.1 24.1C36.1 25.5 35 26.6 33.6 26.6H13.2C11.8 26.6 10.7 25.5 10.7 24.1C10.7 22.7 11.9 21.6 13.2 21.6Z" fill="#8AC912"/>
</svg>
