<svg width="95" height="83" viewBox="0 0 95 83" fill="none" xmlns="http://www.w3.org/2000/svg">
<path fill-rule="evenodd" clip-rule="evenodd" d="M55.9485 27.3255C56.8836 27.9773 59.1422 29.5788 60.3464 29.7956C60.5518 25.161 59.6377 20.0309 61.9337 16.9506C70.2626 15.8997 80.7114 25.9331 84.5058 34.1178C90.4432 46.9232 90.8124 61.9008 90.3194 76.7407C63.1405 79.8369 60.4846 74.7396 60.2812 48.064C59.7733 47.6007 59.2819 47.1919 58.4849 46.6505C57.0768 45.6941 57.3715 45.6838 55.8094 45.5492C55.3431 64.6138 56.2896 82.1955 77.223 82.2032L89.7017 81.3886C95.5631 80.6464 94.9756 81.3737 94.9889 72.1648C95.0254 47.9998 91.9612 20.9128 67.4346 12.9905C56.8585 9.57381 55.0319 18.4268 55.9485 27.3255Z" fill="#96989A"/>
<path fill-rule="evenodd" clip-rule="evenodd" d="M39.0516 27.3255C38.1164 27.9773 35.8579 29.5788 34.6532 29.7956C34.4483 25.161 35.3624 20.0309 33.0659 16.9506C24.737 15.8997 14.2888 25.9331 10.4943 34.1178C4.55693 46.9232 4.18766 61.9008 4.68064 76.7407C31.8596 79.8369 34.5156 74.7396 34.719 48.064C35.2263 47.6007 35.7183 47.1919 36.5153 46.6505C37.9234 45.6941 37.6286 45.6838 39.1908 45.5492C39.6571 64.6138 38.7106 82.1955 17.7767 82.2032L5.29798 81.3886C-0.562908 80.6464 0.0245193 81.3737 0.010654 72.1648C-0.0252929 47.9998 3.03841 20.9128 27.5655 12.9905C38.1416 9.57381 39.9682 18.4268 39.0516 27.3255Z" fill="#96989A"/>
<path fill-rule="evenodd" clip-rule="evenodd" d="M47.2959 36.2089C47.3447 36.193 47.3848 36.1832 47.4099 36.1832C48.2947 36.1909 67.82 49.1293 68.6884 52.6806C69.8823 57.5637 67.2459 60.9846 67.6763 64.0345C70.2773 64.7495 70.4509 63.9467 71.0692 61.7776C71.3655 60.7416 71.4517 60.0631 71.6433 59.1226C71.7188 58.7492 71.7758 58.3465 71.8908 57.9967L72.3673 56.9428C72.4084 56.8585 72.4891 56.707 72.5671 56.6012L79.132 64.1999C80.3147 65.8096 80.1149 65.8707 82.4458 65.7182C82.9054 62.678 78.5918 58.5622 75.885 55.3495C73.2234 52.1911 70.2444 48.9496 67.4462 46.5489C64.7435 44.2308 61.4082 41.6709 57.91 39.3231C54.8176 37.248 50.7607 33.9767 47.4208 32.4933L47.2959 32.5415V36.2089Z" fill="#8AC912"/>
<path fill-rule="evenodd" clip-rule="evenodd" d="M47.7059 36.2089C47.6576 36.193 47.6176 36.1832 47.5925 36.1832C46.7071 36.1909 27.1823 49.1293 26.3139 52.6806C25.1199 57.5637 27.7564 60.9846 27.3261 64.0345C24.7251 64.7495 24.5515 63.9467 23.9327 61.7776C23.6369 60.7416 23.5506 60.0631 23.3591 59.1226C23.2831 58.7492 23.2266 58.3465 23.1116 57.9967L22.635 56.9428C22.5934 56.8585 22.5133 56.707 22.4353 56.6012L15.8703 64.1999C14.6877 65.8096 14.8874 65.8707 12.5565 65.7182C12.0963 62.678 16.4106 58.5622 19.1174 55.3495C21.779 52.1911 24.7579 48.9496 27.5556 46.5489C30.2583 44.2308 33.5937 41.6709 37.0923 39.3231C40.1848 37.248 44.2417 33.9767 47.5816 32.4933L47.7059 32.5415V36.2089Z" fill="#8AC912"/>
<path fill-rule="evenodd" clip-rule="evenodd" d="M82.4436 56.8741C84.1141 54.2489 80.503 51.3997 78.6374 49.3108C77.3679 47.8891 73.025 43.8375 72.5592 42.3998C74.6205 42.366 79.2294 41.9447 80.7068 40.6319C81.4042 40.0124 81.2851 40.2785 81.34 39.5163C81.6769 34.836 76.2382 42.1908 66.7502 37.9009C63.9689 36.6435 58.6631 32.5689 56.0827 30.8821C54.0137 29.5297 52.0787 28.9791 51.8574 26.0991C51.5108 21.6099 52.4074 2.43696 51.6104 0.174403C47.9546 -0.855948 48.7772 2.76265 48.7962 8.81892C48.809 12.6994 48.8018 16.5825 48.8008 20.4635C48.7977 31.744 47.9135 28.9796 57.5067 35.5033C65.072 40.6473 70.7839 44.873 76.4584 51.4752C77.8742 53.1225 80.125 57.0903 82.4436 56.8741Z" fill="#8AC912"/>
<path fill-rule="evenodd" clip-rule="evenodd" d="M12.5557 56.8741C10.8852 54.2489 14.4962 51.3997 16.3619 49.3108C17.6308 47.8891 21.9742 43.8375 22.44 42.3998C20.3781 42.366 15.7698 41.9447 14.2924 40.6319C13.5951 40.0124 13.7136 40.2785 13.6586 39.5163C13.3223 34.836 18.7606 42.1908 28.249 37.9009C31.0298 36.6435 36.3361 32.5689 38.9166 30.8821C40.9851 29.5297 42.92 28.9791 43.1418 26.0991C43.4885 21.6099 42.5919 2.43696 43.3889 0.174403C47.0447 -0.855948 46.222 2.76265 46.2024 8.81892C46.1901 12.6994 46.1973 16.5825 46.1983 20.4635C46.2014 31.744 47.0852 28.9796 37.4925 35.5033C29.9272 40.6473 24.2152 44.873 18.5408 51.4752C17.125 53.1225 14.8737 57.0903 12.5557 56.8741Z" fill="#8AC912"/>
</svg>
