<svg width="77" height="95" viewBox="0 0 77 95" fill="none" xmlns="http://www.w3.org/2000/svg">
<path fill-rule="evenodd" clip-rule="evenodd" d="M41.933 7.95783C48.1523 6.57525 58.288 2.19767 62.8959 3.81014C67.5037 5.42326 74.4145 6.34475 73.2627 20.1699C72.1103 33.995 67.0428 42.751 67.0428 42.751C67.0428 42.751 65.4351 44.7105 67.8539 51.1617C74.3527 68.4951 67.8951 80.9216 54.8384 92.0602C54.8384 92.0602 51.7281 92.9816 53.3409 85.3778C54.953 77.7745 55.9895 69.1333 55.1841 64.5258C54.3781 59.9176 52.0744 45.7466 40.2101 45.1709C23.2491 44.3473 21.543 69.6272 26.0427 87.6825C29.3732 101.046 1.5433 81.1791 8.76508 45.055C10.1467 38.1427 7.38273 33.7651 6.80651 32.6131C6.23093 31.4604 2.08475 23.626 3.00606 17.7512C7.339 -9.88691 33.0611 9.92963 41.933 7.95783Z" fill="#FEFEFE"/>
<path fill-rule="evenodd" clip-rule="evenodd" d="M41.3126 5.14869C42.9872 4.77648 45.1266 4.11902 47.362 3.43321C53.2272 1.63141 59.7041 -0.357788 63.8439 1.09112C64.2153 1.2212 64.5991 1.34614 64.9899 1.47171C70.4617 3.2426 77.3829 5.48293 76.139 20.4067C74.9351 34.8623 69.5617 44.1455 69.5469 44.1726C69.4644 44.3181 69.3704 44.4534 69.2681 44.5783C69.1837 44.7625 68.9178 45.8044 70.5499 50.1576C74.0607 59.522 74.0517 67.6172 71.3875 74.9152C68.7633 82.1024 63.5947 88.3759 56.7109 94.2488C56.3697 94.5412 55.9789 94.7395 55.572 94.8464C55.5508 94.8515 47.9228 97.0339 50.5206 84.78C51.3505 80.8667 52.0245 76.6571 52.3574 72.8925C52.6387 69.7094 52.6729 66.916 52.342 65.0214L52.3065 64.8205C52.3007 64.7877 52.2963 64.7548 52.2917 64.7226C51.5423 60.4326 49.399 48.4994 40.0752 48.0473C38.8513 47.9881 37.7336 48.0943 36.7176 48.3474C33.6112 49.1214 31.3391 51.4023 29.7663 54.579C28.0099 58.1266 27.1002 62.7425 26.8587 67.7209C26.5504 74.0716 27.3339 80.9491 28.8405 86.9946C29.5293 89.7604 29.1688 91.8172 28.0736 93.147C26.5008 95.0557 24.0665 95.2624 21.298 93.8617C19.5127 92.9589 17.43 91.2634 15.3813 88.8698C8.77697 81.1539 1.767 65.335 5.93383 44.4907C7.00773 39.1201 5.12516 35.5815 4.44335 34.3007C4.44078 34.2962 4.43889 34.2911 4.43631 34.2866L4.43241 34.2891C4.41438 34.2544 4.43825 34.3052 4.23996 33.9079L4.23543 33.9099L4.14269 33.7257C3.23941 31.9432 -0.861726 23.8531 0.163242 17.3111C2.70055 1.12395 11.6471 -1.11377 21.2646 0.395028C24.9279 0.969439 28.5147 2.09508 31.8342 3.13701C35.8955 4.41076 39.517 5.5473 41.3126 5.14869ZM41.9333 7.95764C48.1526 6.57571 58.2883 2.19747 62.8962 3.81059C67.504 5.42306 74.4154 6.34521 73.263 20.1697C72.1112 33.9949 67.0424 42.7508 67.0424 42.7508C67.0424 42.7508 65.4354 44.7103 67.8542 51.1615C74.353 68.4949 67.8954 80.9214 54.8387 92.06C54.8387 92.06 51.7284 92.9815 53.3412 85.3783C54.9533 77.7744 55.9898 69.1331 55.1844 64.525C54.3784 59.9174 52.0748 45.7464 40.2104 45.1707C23.2495 44.3471 21.5434 69.6277 26.0424 87.683C29.3735 101.046 1.54293 81.179 8.76471 45.0548C10.147 38.1426 7.38305 33.7649 6.80683 32.6129C6.23061 31.4602 2.08502 23.6265 3.00569 17.751C7.33927 -9.88709 33.0614 9.92945 41.9333 7.95764Z" fill="#96989A"/>
<path fill-rule="evenodd" clip-rule="evenodd" d="M41.8186 14.6902C46.8488 13.5729 52.7211 10.8509 55.7922 11.9256C58.8632 13.001 63.4704 13.6154 62.7023 22.8311C60.9428 31.6327 59.6776 35.1539 59.8688 38.6139C60.5976 51.7822 73.5655 63.7244 56.9317 81.7275C65.66 73.0264 65.6903 39.7504 40.67 34.658C24.2969 35.4926 16.7101 64.7869 19.7084 76.8205C21.927 85.7258 14.8964 63.4996 19.709 39.4195C20.6297 34.8126 18.7877 31.8935 18.4033 31.1259C18.0203 30.3583 15.2557 25.1345 15.8699 21.2193C18.7575 2.79497 36.789 15.8081 41.8186 14.6902Z" fill="#8AC912"/>
</svg>
