<svg width="95" height="95" viewBox="0 0 95 95" fill="none" xmlns="http://www.w3.org/2000/svg">
<path fill-rule="evenodd" clip-rule="evenodd" d="M60.4799 20.5975C62.5421 20.6042 62.6307 20.0117 64.368 19.4796C64.4419 16.7019 61.7607 11.5518 66.6751 7.16011C75.0069 -0.285169 90.6837 8.15673 90.2464 27.0507C89.9604 39.3899 80.6745 57.9813 68.0298 49.6534C66.3563 48.5519 65.0489 46.9147 64.6461 44.9565C63.7744 40.7166 65.8411 39.9909 65.8264 38.04C64.4864 37.597 63.4776 37.2747 61.75 37.4187C54.4715 46.0282 67.7092 60.6365 79.4896 55.1376C98.6945 46.1732 100.591 7.82432 79.1082 0.795518C73.0987 -1.17063 67.0181 0.722163 63.3241 4.14825C58.5373 8.58788 58.7562 14.0975 60.4799 20.5975Z" fill="#96989A"/>
<path fill-rule="evenodd" clip-rule="evenodd" d="M34.0822 20.597C32.0195 20.6038 31.9314 20.0112 30.1942 19.479C30.1203 16.7013 32.801 11.5518 27.8867 7.16018C19.5554 -0.28566 3.87855 8.15623 4.31582 27.0507C4.60188 39.3899 13.8873 57.9808 26.5325 49.6529C28.206 48.5513 29.5132 46.9142 29.9161 44.9565C30.7872 40.7161 28.7211 39.9904 28.7357 38.0395C30.0757 37.597 31.0846 37.2742 32.8122 37.4182C40.09 46.0277 26.8529 60.636 15.0726 55.1377C-4.13218 46.1726 -6.02908 7.82384 15.4535 0.79504C21.4635 -1.1711 27.5435 0.72163 31.238 4.14771C36.0243 8.5879 35.8059 14.097 34.0822 20.597Z" fill="#96989A"/>
<path fill-rule="evenodd" clip-rule="evenodd" d="M51.3288 90.7304C52.1193 89.8602 54.4304 89.7022 55.7727 89.2642C65.0123 86.2518 69.4396 77.157 64.7899 71.5328C62.3333 68.561 60.0167 68.6818 56.8639 67.416C56.6687 60.0559 56.2421 47.1681 57.3914 40.5355C58.7094 32.9299 63.8844 32.8493 69.1378 37.1456C70.8722 38.5643 71.6943 40.926 73.1748 39.6907C74.8596 38.2844 72.1248 35.5118 70.773 34.4113C68.8349 32.834 67.3301 32.4226 65.1747 31.5784C67.8982 29.0332 76.0308 32.0112 78.6652 33.4723C80.144 34.2917 80.6581 35.3741 82.8139 35.0152L83.1981 32.5614C81.1556 31.3995 80.3675 30.7381 78.5637 29.9571C77.0877 29.3177 74.5797 28.8058 73.1754 28.1472C73.6104 27.1805 72.847 27.9887 74.2874 27.2787C87.3852 20.8295 84.2769 14.843 81.0349 18.2296C78.1455 21.2493 77.9775 22.584 72.3291 24.9051C60.6018 29.7234 53.9096 30.6912 53.9068 46.8335C53.9017 74.64 52.5256 68.8285 59.2076 71.3658C66.8962 74.2856 64.294 83.9521 53.0046 86.8827C49.5285 87.7851 48.0141 87.7834 47.9193 91.9031C47.882 93.499 47.9898 95.7546 50.1085 94.7518C51.5986 94.0464 50.5745 92.2727 51.3288 90.7304Z" fill="#8AC912"/>
<path fill-rule="evenodd" clip-rule="evenodd" d="M43.2333 90.7298C42.4429 89.8602 40.1318 89.7016 38.7896 89.2642C29.55 86.2518 25.1225 77.1564 29.7722 71.5323C32.2288 68.561 34.545 68.6812 37.6978 67.416C37.8936 60.0553 38.3202 47.1676 37.1709 40.5355C35.8529 32.9294 30.6778 32.8487 25.4238 37.145C23.69 38.5637 22.868 40.9255 21.3875 39.6902C19.7027 38.2839 22.4375 35.5113 23.7893 34.4108C25.7269 32.8335 27.2316 32.4221 29.3874 31.5779C26.6634 29.0327 18.5314 32.0107 15.8965 33.4717C14.4182 34.2912 13.9043 35.3736 11.7484 35.0152L11.3641 32.5609C13.406 31.3995 14.1948 30.7375 15.9986 29.9565C17.4741 29.3171 19.9826 28.8053 21.3869 28.1467C20.9519 27.1806 21.7152 27.9881 20.2742 27.2788C7.17652 20.829 10.2854 14.8425 13.5268 18.2291C16.4167 21.2488 16.5849 22.5835 22.2332 24.9046C33.9605 29.7229 40.6521 30.6907 40.6554 46.833C40.6605 74.6401 42.0366 68.828 35.354 71.3658C27.666 74.2856 30.2682 83.9516 41.5576 86.8822C45.0338 87.7846 46.5481 87.7829 46.6429 91.9025C46.6795 93.4985 46.5718 95.7541 44.4538 94.7513C42.9637 94.0458 43.9877 92.2721 43.2333 90.7298Z" fill="#8AC912"/>
<path fill-rule="evenodd" clip-rule="evenodd" d="M47.0049 69.8261C48.996 69.8211 50.9764 70.2195 52.0343 69.075C54.2145 65.8961 49.576 40.9311 55.4151 32.5247C59.8973 26.0715 68.5066 25.5794 73.3459 20.7933C74.9274 19.2289 77.2181 17.0427 75.9447 14.7651L74.0455 14.5049C71.0625 18.3988 73.3397 18.1985 66.0325 21.8458C56.2942 26.7053 60.6415 20.1849 55.5319 20.5297C54.5874 23.8683 56.1537 23.6466 57.3893 25.9485C57.1648 26.1985 56.9978 26.4169 56.6322 26.7792C56.3004 27.1082 56.148 27.2267 55.8642 27.4637C55.1826 28.0326 54.8762 28.2199 54.2849 28.8249C46.1918 37.1003 50.889 54.9446 49.382 66.8097L47.0049 66.7973V69.8261Z" fill="#8AC912"/>
<path fill-rule="evenodd" clip-rule="evenodd" d="M47.5532 69.8256C45.5621 69.8211 43.5823 70.2189 42.5244 69.0744C40.3437 65.8955 44.9827 40.9305 39.1436 32.5241C34.6615 26.0709 26.052 25.5788 21.2127 20.7927C19.6312 19.2289 17.34 17.0422 18.614 14.7645L20.5131 14.5049C23.4961 18.3982 21.2184 18.1985 28.5262 21.8452C38.2646 26.7053 33.9172 20.1849 39.0268 20.5292C39.9707 23.8678 38.4045 23.6466 37.1694 25.9479C37.3939 26.1985 37.561 26.4163 37.9266 26.7786C38.2583 27.1076 38.4101 27.2261 38.6944 27.4632C39.376 28.0326 39.6824 28.2194 40.2737 28.8244C48.3668 37.0998 43.6697 54.9441 45.1768 66.8092L47.5532 66.7968V69.8256Z" fill="#8AC912"/>
<path fill-rule="evenodd" clip-rule="evenodd" d="M60.0372 77.4859L47.0049 77.4453V85.6022C47.0291 85.6078 47.0483 85.6112 47.0635 85.6118C48.1028 85.6817 48.688 84.7004 50.6706 84.3381C54.6805 83.605 59.7839 82.0734 60.0372 77.4859Z" fill="#96989A"/>
<path fill-rule="evenodd" clip-rule="evenodd" d="M34.5249 77.4852L47.5566 77.4446V85.6021C47.5329 85.6077 47.5138 85.6105 47.4985 85.6111C46.4593 85.6816 45.8736 84.6997 43.8915 84.338C39.881 83.6049 34.7782 82.0727 34.5249 77.4852Z" fill="#96989A"/>
</svg>
